<?xml version="1.0" encoding="utf-8"?>
<!-- Generator: Adobe Illustrator 19.2.1, SVG Export Plug-In . SVG Version: 6.00 Build 0)  -->
<svg version="1.1" id="Layer_1" xmlns="http://www.w3.org/2000/svg" xmlns:xlink="http://www.w3.org/1999/xlink" x="0px" y="0px"
	 viewBox="0 0 200 200" style="enable-background:new 0 0 200 200;" xml:space="preserve">
<style type="text/css">
	.st0{fill:none;}
	.st1{fill:url(#SVGID_1_);}
	.st2{fill:url(#SVGID_2_);}
	.st3{fill:url(#SVGID_3_);}
	.st4{fill:#F1FCFF;}
	.st5{fill:url(#SVGID_4_);}
</style>
<rect class="st0" width="200" height="200"/>
<linearGradient id="SVGID_1_" gradientUnits="userSpaceOnUse" x1="40.4014" y1="170.4854" x2="170.5506" y2="-14.5576" gradientTransform="matrix(1 0 0 -1 0 202)">
	<stop  offset="0" style="stop-color:#40A9FF"/>
	<stop  offset="1" style="stop-color:#096DD9"/>
</linearGradient>
<path class="st1" d="M156.3,181.3H50c-5.2,0-9.4-4.2-9.4-9.4V28.1c0-5.2,4.2-9.4,9.4-9.4h64.9c2.5,0,4.9,1,6.6,2.7l41.4,41.4
	c1.8,1.8,2.7,4.1,2.7,6.6V96c0,0.6,0.1,1.1,0.3,1.6l11.3,25.5c0.5,1.2,0.4,2.5-0.2,3.6l-11,19.2c-0.3,0.6-0.5,1.3-0.5,2v23.9
	C165.6,177.1,161.4,181.3,156.3,181.3z"/>
<linearGradient id="SVGID_2_" gradientUnits="userSpaceOnUse" x1="120.9439" y1="134.39" x2="183.0219" y2="209.3404" gradientTransform="matrix(1 0 0 -1 0 202)">
	<stop  offset="0" style="stop-color:#40A9FF"/>
	<stop  offset="1" style="stop-color:#096DD9"/>
</linearGradient>
<path class="st2" d="M162.9,62.9l-41.4-41.4l0,0c-1.1-1.1-2.7-0.1-2.7,1.5v33.3c0,5.2,4.2,9.4,9.4,9.4h33.3
	C163,65.6,164,64,162.9,62.9L162.9,62.9z"/>
<linearGradient id="SVGID_3_" gradientUnits="userSpaceOnUse" x1="138.693" y1="149.0424" x2="145.882" y2="118.8406" gradientTransform="matrix(1 0 0 -1 0 202)">
	<stop  offset="0" style="stop-color:#40A9FF"/>
	<stop  offset="1" style="stop-color:#096DD9"/>
</linearGradient>
<path class="st3" d="M128.1,65.6c-5.2,0-9.4-4.2-9.4-9.4v9.4c0,5.2,4.2,9.4,9.4,9.4h33.5c2.2,0,4-1.8,4-4v-1.5c0-0.5,0-1-0.1-1.4
	c-0.3-1.5-1.8-2.5-3.3-2.5H128.1z"/>
<path class="st4" d="M100,68.8H65.6c-3.5,0-6.3-2.8-6.3-6.3c0-3.5,2.8-6.3,6.3-6.3H100c3.5,0,6.3,2.8,6.3,6.3
	C106.3,66,103.5,68.8,100,68.8z"/>
<path class="st4" d="M65.6,115.6h43.8c3.5,0,6.3,2.8,6.3,6.3s-2.8,6.3-6.3,6.3H65.6c-3.5,0-6.3-2.8-6.3-6.3S62.2,115.6,65.6,115.6z"
	/>
<path class="st4" d="M93.8,153.1H65.6c-3.5,0-6.3-2.8-6.3-6.3s2.8-6.3,6.3-6.3h28.1c3.5,0,6.3,2.8,6.3,6.3S97.2,153.1,93.8,153.1z
	 M65.6,90.6H125c3.5,0,6.3,2.8,6.3,6.3c0,3.5-2.8,6.3-6.3,6.3H65.6c-3.5,0-6.3-2.8-6.3-6.3C59.4,93.4,62.2,90.6,65.6,90.6z"/>
<path class="st4" d="M112.9,134.4h35.6c4.3,0,7.8,3.5,7.8,7.8c0,4.3-3.5,7.8-7.8,7.8h-27.8c-4.3,0-7.8-3.5-7.8-7.8V134.4z
	 M120.7,103.1h27.7c4.3,0,7.8,3.5,7.8,7.8c0,4.3-3.5,7.8-7.8,7.8h-35.6v-7.8C112.9,106.6,116.4,103.1,120.7,103.1z"/>
<linearGradient id="SVGID_4_" gradientUnits="userSpaceOnUse" x1="153.1237" y1="142.1687" x2="153.1237" y2="34.516" gradientTransform="matrix(1 0 0 -1 0 202)">
	<stop  offset="0" style="stop-color:#A4A4A4"/>
	<stop  offset="0.63" style="stop-color:#7F7F7F"/>
	<stop  offset="1" style="stop-color:#6F6F6F"/>
</linearGradient>
<path class="st5" d="M198.2,167.5L177,146.3c4.6-6.4,7.4-14.3,7.4-22.8c0-21.6-17.5-39.1-39.1-39.1s-39.1,17.5-39.1,39.1
	s17.5,39.1,39.1,39.1c8.5,0,16.4-2.8,22.8-7.4l21.2,21.2c2.4,2.4,6.4,2.4,8.8,0C200.6,173.9,200.6,169.9,198.2,167.5z M118.8,123.4
	c0-14.7,11.9-26.6,26.6-26.6c14.7,0,26.6,11.9,26.6,26.6c0,14.7-11.9,26.6-26.6,26.6C130.6,150,118.8,138.1,118.8,123.4z"/>
</svg>
