<svg width="150" height="150" viewBox="0 0 150 150" fill="none" xmlns="http://www.w3.org/2000/svg">
<mask id="mask0" mask-type="alpha" maskUnits="userSpaceOnUse" x="0" y="0" width="150" height="150">
<path fill-rule="evenodd" clip-rule="evenodd" d="M52.5086 0.142151H97.6394C112.606 0.142151 120.088 0.142151 128.145 2.68903C136.941 5.89065 143.868 12.8182 147.07 21.6142C149.617 29.6698 149.617 37.1539 149.617 52.1197V97.2504C149.617 112.217 149.617 119.699 147.07 127.756C143.868 136.552 136.941 143.479 128.145 146.68C120.088 149.228 112.606 149.228 97.6394 149.228H52.5086C37.5417 149.228 30.0588 149.228 22.0032 146.68C13.2071 143.479 6.27963 136.552 3.07801 127.756C0.531128 119.699 0.531128 112.217 0.531128 97.2504V52.1197C0.531128 37.1539 0.531128 29.6698 3.07801 21.6142C6.27963 12.8182 13.2071 5.89065 22.0032 2.68903C30.0588 0.142151 37.5417 0.142151 52.5086 0.142151Z" fill="white"/>
</mask>
<g mask="url(#mask0)">
<rect x="0.531128" y="0.142151" width="149.086" height="149.086" rx="1.7471" fill="url(#paint0_linear)"/>
<path d="M65.1921 78.8088L32.8887 111.581L75.0726 91.0131L65.1921 78.8088Z" fill="#C4C4C4"/>
<path d="M64.7319 58.1266L22.3926 37.789L75.0737 91.0154L64.7319 58.1266Z" fill="white"/>
<path d="M84.9553 78.8088L117.259 111.581L75.0737 91.0142L84.9553 78.8088Z" fill="#C4C4C4"/>
<path d="M85.4156 58.1266L127.755 37.789L75.0737 91.0154L85.4156 58.1266Z" fill="white"/>
</g>
<defs>
<linearGradient id="paint0_linear" x1="0.531131" y1="74.685" x2="90.1153" y2="1.67545" gradientUnits="userSpaceOnUse">
<stop offset="0.00931448"/>
<stop offset="1" stop-color="#363636"/>
</linearGradient>
</defs>
</svg>
