<svg width="556" height="47" viewBox="0 0 556 47" fill="none" xmlns="http://www.w3.org/2000/svg">
<path d="M33.7541 1.2572H26.5863L0.180237 45.5788H6.53288L14.9637 31.1609L30.1764 5.18264L45.6007 31.1609L54.156 45.5788H60.3779L33.7541 1.2572Z" fill="black"/>
<path d="M217.596 0.794434H237.357C246.649 0.794434 252.599 2.02885 255.208 4.49767C257.817 6.9665 259.124 12.6901 259.128 21.6684V24.6618C259.118 28.0292 258.927 31.3936 258.556 34.7408C258.174 38.2589 256.903 40.9725 254.742 42.8818C252.581 44.791 249.331 45.7435 244.992 45.7394C243.654 45.869 241.943 45.9554 239.871 46.0048C237.799 46.0542 235.814 46.0665 233.942 46.0665H222.742C220.113 46.0725 217.486 45.9407 214.871 45.6715C212.69 45.4855 210.546 44.9909 208.506 44.2026C206.738 43.4464 205.259 42.1487 204.288 40.4993C203.083 38.4048 202.363 36.0711 202.178 33.6669C201.843 30.3673 201.687 27.0522 201.712 23.736C201.712 20.1356 201.755 17.5475 201.842 15.9715C202.043 13.6947 202.413 11.4357 202.95 9.21313C203.196 7.85673 203.75 6.57374 204.57 5.46153C205.391 4.34932 206.456 3.43712 207.685 2.79418C210.186 1.46102 213.49 0.794434 217.596 0.794434ZM218.766 41.1289L230.32 41.3943H235.92C239.098 41.3943 242.298 41.2379 245.521 40.9252C248.75 40.6166 250.884 39.5612 251.942 37.7651C253 35.969 253.516 33.2718 253.516 29.6797V20.545C253.532 18.1113 253.422 15.6784 253.186 13.2558C253.09 11.5843 252.584 9.96128 251.712 8.52803C251.011 7.48395 249.952 6.72741 248.731 6.39867C247.509 6.06716 246.26 5.84408 244.998 5.73209C243.725 5.62099 242.372 5.56544 240.941 5.56544L230.395 5.44817L220.017 5.57779C214.919 5.57779 211.569 6.23408 209.968 7.54667C208.367 8.85927 207.56 11.9576 207.548 16.8418L207.374 23.52V26.785C207.374 32.3892 207.977 36.1809 209.184 38.1601C210.391 40.1393 213.585 41.1289 218.766 41.1289Z" fill="black"/>
<path d="M317.671 45.5788H276.942V1.2572H282.367V41.1288H317.671V45.5788Z" fill="black"/>
<path d="M346.47 0.794434H366.231C375.519 0.794434 381.467 2.02885 384.076 4.49767C386.685 6.9665 387.992 12.6901 387.996 21.6684V24.6618C387.988 28.0291 387.799 31.3935 387.43 34.7408C387.048 38.2589 385.775 40.9725 383.609 42.8818C381.444 44.791 378.196 45.7435 373.866 45.7394C372.526 45.867 370.817 45.9554 368.739 46.0048C366.667 46.048 364.688 46.0665 362.816 46.0665H351.616C348.987 46.0725 346.36 45.9407 343.745 45.6715C341.573 45.4747 339.44 44.9718 337.411 44.1779C335.643 43.4218 334.164 42.1241 333.193 40.4746C331.988 38.3801 331.268 36.0465 331.083 33.6422C330.728 30.3458 330.555 27.0326 330.567 23.7175C330.567 20.1171 330.613 17.529 330.704 15.953C330.904 13.6762 331.274 11.4171 331.811 9.19462C332.059 7.84269 332.612 6.56412 333.43 5.45537C334.248 4.34663 335.31 3.43668 336.534 2.79418C339.048 1.46102 342.36 0.794434 346.47 0.794434ZM347.64 41.1289L359.194 41.3943H364.794C367.971 41.3943 371.174 41.2379 374.401 40.9252C377.628 40.6125 379.766 39.5591 380.816 37.7651C381.873 35.9711 382.4 33.276 382.396 29.6797V20.545C382.414 18.1111 382.301 15.678 382.06 13.2558C381.969 11.5843 381.465 9.96071 380.592 8.52803C379.89 7.48513 378.831 6.72894 377.611 6.39867C376.389 6.06716 375.14 5.84408 373.878 5.73209C372.605 5.62099 371.253 5.56544 369.822 5.56544L359.306 5.43583L348.922 5.56544C343.832 5.56544 340.485 6.22174 338.88 7.53433C337.274 8.84692 336.455 11.9494 336.422 16.8418L336.223 23.5138V26.7788C336.223 32.3831 336.826 36.1748 338.033 38.154C339.24 40.1331 342.443 41.1248 347.64 41.1289V41.1289Z" fill="black"/>
<path d="M483.628 45.5788H478.202V1.2572H483.628V45.5788Z" fill="black"/>
<path d="M182.733 27.8714C181.327 26.8304 179.127 26.1103 176.132 25.7112C180.106 25.1351 182.686 24.1065 183.872 22.6252C185.058 21.1439 185.649 18.4076 185.645 14.4163C185.645 9.23178 184.474 5.73428 182.13 3.92381C179.786 2.11333 175.912 1.22456 170.507 1.25747H134.134V45.5791H139.553V5.77543H169.362C173.158 5.77543 175.881 6.29594 177.532 7.33696C179.183 8.37798 180.012 10.6267 180.021 14.083C180.021 17.7204 179.249 20.1461 177.706 21.3599C176.163 22.5737 173.427 23.1909 169.499 23.2115H148.569V27.6616H170.041C173.525 27.6616 175.97 28.1944 177.376 29.2601C178.783 30.3258 179.486 32.4964 179.486 35.7717V45.5791H184.849V33.5497C184.845 30.8093 184.14 28.9166 182.733 27.8714Z" fill="black"/>
<path d="M460.943 28.1673V27.6612L460.881 23.7173H431.806V28.1673H460.943V28.1673Z" fill="black"/>
<path d="M453.912 37.7404C453.016 39.555 450.892 40.6125 447.541 40.9129C444.189 41.2132 441.493 41.3696 439.452 41.3819H438.444L433.622 41.314L422.236 41.1844C415.715 41.1844 412.109 39.9315 411.416 37.4256C410.723 34.9198 410.377 31.2762 410.377 26.4949L410.644 15.0704C410.644 11.1697 411.347 8.73171 412.754 7.75652C414.16 6.78751 416.561 6.13944 419.959 5.83084L428.732 5.49755L434.027 5.56544L443.136 5.63333C447.649 5.63333 450.729 6.08801 452.375 6.99736C454.022 7.90671 454.852 10.3097 454.864 14.2063H460.221C460.221 9.73364 459.317 6.44187 457.508 4.33103C455.7 2.22018 452.647 1.15241 448.35 1.12773L439.452 0.794434L434.027 0.862326L422.765 0.99194C414.884 0.99194 409.906 2.60902 407.832 5.84318C405.758 9.07735 404.729 15.0066 404.746 23.6311V26.0999C404.746 34.424 406.109 39.8389 408.834 42.3448C411.559 44.8506 417.159 46.1015 425.633 46.0974H444.43C451.398 46.0974 455.897 44.7395 457.925 42.0238C458.957 40.534 459.681 38.8556 460.053 37.0862H454.211C454.093 37.3269 454.005 37.5429 453.912 37.7404Z" fill="black"/>
<path d="M555.323 45.579L536.172 28.3219L532.121 31.9758L547.153 45.579H555.323Z" fill="black"/>
<path d="M552.643 1.2572H544.604L525.422 18.6377L506.14 1.2572H498.188L521.39 22.2546L495.643 45.5788H503.788L525.434 25.9208L525.44 25.927L530.188 21.6374L552.643 1.2572Z" fill="black"/>
<path d="M114.846 20.4648H77.726V24.9149H114.846V20.4648Z" fill="black"/>
<path d="M116.253 1.2572H77.726V5.77516H116.253V1.2572Z" fill="black"/>
<path d="M116.725 41.1288H77.726V45.5788H116.725V41.1288Z" fill="black"/>
</svg>
