<?xml version="1.0" encoding="utf-8"?>
<!-- Generator: Adobe Illustrator 19.2.1, SVG Export Plug-In . SVG Version: 6.00 Build 0)  -->
<svg version="1.1" id="Layer_1" xmlns="http://www.w3.org/2000/svg" xmlns:xlink="http://www.w3.org/1999/xlink" x="0px" y="0px"
	 viewBox="0 0 200 200" style="enable-background:new 0 0 200 200;" xml:space="preserve">
<style type="text/css">
	.st0{fill:url(#SVGID_1_);}
	.st1{fill:url(#SVGID_2_);}
	.st2{fill:url(#SVGID_3_);}
	.st3{fill:url(#SVGID_4_);}
	.st4{fill:url(#SVGID_5_);}
</style>
<linearGradient id="SVGID_1_" gradientUnits="userSpaceOnUse" x1="87.3764" y1="182.3769" x2="134.1538" y2="63.1951" gradientTransform="matrix(1 0 0 -1 0 202)">
	<stop  offset="0" style="stop-color:#40A9FF"/>
	<stop  offset="1" style="stop-color:#096DD9"/>
</linearGradient>
<path class="st0" d="M142,117c3.3,0,6.5-1.3,8.8-3.7c1.1-1.1,2.1-2.5,2.7-4l20.1-47.7c0.3-0.8,0.5-1.7,0.5-2.6c0-3.7-3-6.7-6.7-6.7
	H66.8c-1.7,0-3.3-1.1-3.8-2.8l-0.1-0.2c-2.5-7.9-9.7-13.2-18-13.2H34c-4.5,0-8.1,3.6-8.1,8.1c0,4.5,3.6,8.1,8.1,8.1h11
	c1.2,0,2.2,0.8,2.6,1.9l13.2,41.9c0.1,0.4,0.2,0.8,0.2,1.2v25.1c0,11.9,9.7,21.6,21.6,21.6h64.7c4.5,0,8.1-3.6,8.1-8.1
	c0-4.5-3.6-8.1-8.1-8.1H82.5c-3,0-5.4-2.4-5.4-5.4V121c0-2.2,1.8-4,4-4H142z"/>
<linearGradient id="SVGID_2_" gradientUnits="userSpaceOnUse" x1="122.7349" y1="136.5068" x2="148.8499" y2="68.581" gradientTransform="matrix(1 0 0 -1 0 202)">
	<stop  offset="0" style="stop-color:#40A9FF"/>
	<stop  offset="1" style="stop-color:#096DD9"/>
</linearGradient>
<path class="st1" d="M136.4,71.2c-4.5,0-8.1,3.6-8.1,8.1c0,4.5,3.6,8.1,8.1,8.1h1.3c3.7,0,6.7,3,6.7,6.7c0,3.7-3,6.7-6.7,6.7h-31
	c-4.5,0-8.1,3.6-8.1,8.1c0,4.5,3.6,8.1,8.1,8.1H142c3.3,0,6.5-1.3,8.8-3.7c1.1-1.1,2.1-2.5,2.7-4l13.7-32.6c1.1-2.6-0.8-5.6-3.7-5.6
	H136.4z"/>
<linearGradient id="SVGID_3_" gradientUnits="userSpaceOnUse" x1="108.0488" y1="130.0693" x2="144.0878" y2="90.9435" gradientTransform="matrix(1 0 0 -1 0 202)">
	<stop  offset="0" style="stop-color:#40A9FF"/>
	<stop  offset="1" style="stop-color:#096DD9"/>
</linearGradient>
<path class="st2" d="M114.8,71.2c-2.1,0-4.2,0.9-5.7,2.4c-1.5,1.5-2.4,3.6-2.4,5.7s0.9,4.2,2.4,5.7c1.5,1.5,3.6,2.4,5.7,2.4
	s4.2-0.9,5.7-2.4c1.5-1.5,2.4-3.6,2.4-5.7s-0.9-4.2-2.4-5.7C119,72,117,71.2,114.8,71.2z"/>
<linearGradient id="SVGID_4_" gradientUnits="userSpaceOnUse" x1="136.376" y1="30.5" x2="136.376" y2="52.056" gradientTransform="matrix(1 0 0 -1 0 202)">
	<stop  offset="0" style="stop-color:#A4A4A4"/>
	<stop  offset="0.619" style="stop-color:#808080"/>
	<stop  offset="1" style="stop-color:#6F6F6F"/>
</linearGradient>
<path class="st3" d="M136.4,144c-2.9,0-5.6,1.1-7.6,3.2c-2,2-3.2,4.8-3.2,7.6c0,2.9,1.1,5.6,3.2,7.6c2,2,4.8,3.2,7.6,3.2
	c2.9,0,5.6-1.1,7.6-3.2c2-2,3.2-4.8,3.2-7.6c0-2.9-1.1-5.6-3.2-7.6C142,145.1,139.2,144,136.4,144z"/>
<linearGradient id="SVGID_5_" gradientUnits="userSpaceOnUse" x1="85.1798" y1="27.245" x2="85.1799" y2="48.801" gradientTransform="matrix(1 0 0 -1 0 202)">
	<stop  offset="0" style="stop-color:#A4A4A4"/>
	<stop  offset="0.619" style="stop-color:#808080"/>
	<stop  offset="1" style="stop-color:#6F6F6F"/>
</linearGradient>
<path class="st4" d="M85.2,144c-2.9,0-5.6,1.1-7.6,3.2c-2,2-3.2,4.8-3.2,7.6c0,2.9,1.1,5.6,3.2,7.6c2,2,4.8,3.2,7.6,3.2
	c2.9,0,5.6-1.1,7.6-3.2c2-2,3.2-4.8,3.2-7.6c0-2.9-1.1-5.6-3.2-7.6C90.8,145.1,88,144,85.2,144z"/>
</svg>
