<?xml version="1.0" encoding="utf-8"?>
<!-- Generator: Adobe Illustrator 19.2.1, SVG Export Plug-In . SVG Version: 6.00 Build 0)  -->
<svg version="1.1" id="Layer_1" xmlns="http://www.w3.org/2000/svg" xmlns:xlink="http://www.w3.org/1999/xlink" x="0px" y="0px"
	 viewBox="0 0 173.7 148.3" style="enable-background:new 0 0 173.7 148.3;" xml:space="preserve">
<style type="text/css">
	.st0{fill:url(#SVGID_1_);}
	.st1{fill:url(#SVGID_2_);}
	.st2{fill:url(#SVGID_3_);}
	.st3{fill:url(#SVGID_4_);}
	.st4{fill:url(#SVGID_5_);}
</style>
<linearGradient id="SVGID_1_" gradientUnits="userSpaceOnUse" x1="68.0578" y1="872.284" x2="114.8352" y2="991.4658" gradientTransform="matrix(1 0 0 1 0 -878)">
	<stop  offset="0" style="stop-color:#40A9FF"/>
	<stop  offset="1" style="stop-color:#096DD9"/>
</linearGradient>
<path class="st0" d="M122.7,91.7c3.3,0,6.5-1.3,8.8-3.7c1.1-1.1,2.1-2.5,2.7-4l20.1-47.7c0.3-0.8,0.5-1.7,0.5-2.6
	c0-3.7-3-6.7-6.7-6.7H47.5c-1.7,0-3.3-1.1-3.8-2.8L43.6,24c-2.5-7.9-9.7-13.2-18-13.2H14.7c-4.5,0-8.1,3.6-8.1,8.1s3.6,8.1,8.1,8.1
	h11c1.2,0,2.2,0.8,2.6,1.9l13.2,41.9c0.1,0.4,0.2,0.8,0.2,1.2v25.1c0,11.9,9.7,21.6,21.6,21.6H128c4.5,0,8.1-3.6,8.1-8.1
	s-3.6-8.1-8.1-8.1H63.2c-3,0-5.4-2.4-5.4-5.4v-1.4c0-2.2,1.8-4,4-4H122.7z"/>
<linearGradient id="SVGID_2_" gradientUnits="userSpaceOnUse" x1="103.3774" y1="918.1691" x2="129.4924" y2="986.095" gradientTransform="matrix(1 0 0 1 0 -878)">
	<stop  offset="0" style="stop-color:#40A9FF"/>
	<stop  offset="1" style="stop-color:#096DD9"/>
</linearGradient>
<path class="st1" d="M117.1,45.9c-4.5,0-8.1,3.6-8.1,8.1s3.6,8.1,8.1,8.1h1.3c3.7,0,6.7,3,6.7,6.7s-3,6.7-6.7,6.7h-31
	c-4.5,0-8.1,3.6-8.1,8.1s3.6,8.1,8.1,8.1h35.3c3.3,0,6.5-1.3,8.8-3.7c1.1-1.1,2.1-2.5,2.7-4l13.7-32.6c1.1-2.6-0.8-5.6-3.7-5.6
	h-27.1V45.9z"/>
<linearGradient id="SVGID_3_" gradientUnits="userSpaceOnUse" x1="88.6956" y1="924.6157" x2="124.7346" y2="963.7415" gradientTransform="matrix(1 0 0 1 0 -878)">
	<stop  offset="0" style="stop-color:#40A9FF"/>
	<stop  offset="1" style="stop-color:#096DD9"/>
</linearGradient>
<path class="st2" d="M95.5,45.9c-2.1,0-4.2,0.9-5.7,2.4s-2.4,3.6-2.4,5.7s0.9,4.2,2.4,5.7s3.6,2.4,5.7,2.4s4.2-0.9,5.7-2.4
	s2.4-3.6,2.4-5.7s-0.9-4.2-2.4-5.7C99.7,46.7,97.7,45.9,95.5,45.9z"/>
<linearGradient id="SVGID_4_" gradientUnits="userSpaceOnUse" x1="117.0667" y1="1024.1666" x2="117.0667" y2="1002.6107" gradientTransform="matrix(1 0 0 1 0 -878)">
	<stop  offset="0" style="stop-color:#A4A4A4"/>
	<stop  offset="0.619" style="stop-color:#808080"/>
	<stop  offset="1" style="stop-color:#6F6F6F"/>
</linearGradient>
<path class="st3" d="M117.1,118.7c-2.9,0-5.6,1.1-7.6,3.2c-2,2-3.2,4.8-3.2,7.6c0,2.9,1.1,5.6,3.2,7.6c2,2,4.8,3.2,7.6,3.2
	c2.9,0,5.6-1.1,7.6-3.2c2-2,3.2-4.8,3.2-7.6c0-2.9-1.1-5.6-3.2-7.6C122.7,119.8,119.9,118.7,117.1,118.7z"/>
<linearGradient id="SVGID_5_" gradientUnits="userSpaceOnUse" x1="65.8666" y1="1027.4216" x2="65.8667" y2="1005.8657" gradientTransform="matrix(1 0 0 1 0 -878)">
	<stop  offset="0" style="stop-color:#A4A4A4"/>
	<stop  offset="0.619" style="stop-color:#808080"/>
	<stop  offset="1" style="stop-color:#6F6F6F"/>
</linearGradient>
<path class="st4" d="M65.9,118.7c-2.9,0-5.6,1.1-7.6,3.2c-2,2-3.2,4.8-3.2,7.6c0,2.9,1.1,5.6,3.2,7.6c2,2,4.8,3.2,7.6,3.2
	c2.9,0,5.6-1.1,7.6-3.2c2-2,3.2-4.8,3.2-7.6c0-2.9-1.1-5.6-3.2-7.6C71.5,119.8,68.7,118.7,65.9,118.7z"/>
</svg>
