<?xml version="1.0" encoding="utf-8"?>
<!-- Generator: Adobe Illustrator 19.2.1, SVG Export Plug-In . SVG Version: 6.00 Build 0)  -->
<svg version="1.1" id="Layer_1" xmlns="http://www.w3.org/2000/svg" xmlns:xlink="http://www.w3.org/1999/xlink" x="0px" y="0px"
	 viewBox="0 0 200 200" style="enable-background:new 0 0 200 200;" xml:space="preserve">
<style type="text/css">
	.st0{fill:#F1FCFF;}
	.st1{fill:url(#SVGID_1_);}
	.st2{fill:url(#SVGID_2_);}
	.st3{fill:url(#SVGID_3_);}
	.st4{fill:url(#SVGID_4_);}
</style>
<circle class="st0" cx="134" cy="130" r="29"/>
<linearGradient id="SVGID_1_" gradientUnits="userSpaceOnUse" x1="133.9405" y1="42.588" x2="133.9405" y2="80.469" gradientTransform="matrix(1 0 0 -1 0 202)">
	<stop  offset="0" style="stop-color:#A4A4A4"/>
	<stop  offset="0.619" style="stop-color:#808080"/>
	<stop  offset="1" style="stop-color:#6F6F6F"/>
</linearGradient>
<path class="st1" d="M133.9,111c-10.5,0-18.9,8.5-18.9,18.9c0,10.5,8.5,18.9,18.9,18.9c10.5,0,18.9-8.5,18.9-18.9
	C152.9,119.5,144.4,111,133.9,111z M138.8,133.6c-1.2,1.5-2.9,2.4-4.8,2.4v0c-3.4,0-6.1-2.7-6.1-6c0-1.9,0.9-3.7,2.4-4.9v-7.4
	c0-2,1.7-3.7,3.7-3.7c2,0,3.7,1.7,3.7,3.7v7.4C140.3,127.2,140.8,131,138.8,133.6z"/>
<circle class="st0" cx="66" cy="130" r="29"/>
<linearGradient id="SVGID_2_" gradientUnits="userSpaceOnUse" x1="65.9407" y1="42.588" x2="65.9407" y2="80.469" gradientTransform="matrix(1 0 0 -1 0 202)">
	<stop  offset="0" style="stop-color:#A4A4A4"/>
	<stop  offset="0.619" style="stop-color:#808080"/>
	<stop  offset="1" style="stop-color:#6F6F6F"/>
</linearGradient>
<path class="st2" d="M65.9,111c-10.5,0-18.9,8.5-18.9,18.9c0,10.5,8.5,18.9,18.9,18.9c10.5,0,18.9-8.5,18.9-18.9
	C84.9,119.5,76.4,111,65.9,111z M70.8,133.6c-2,2.7-5.9,3.2-8.5,1.1c-2.7-2-3.2-5.9-1.1-8.5c0.3-0.4,0.7-0.8,1.1-1.1v-7.4
	c0-2,1.7-3.7,3.7-3.7c2,0,3.7,1.7,3.7,3.7v7.4C72.3,127.2,72.8,131,70.8,133.6z"/>
<linearGradient id="SVGID_3_" gradientUnits="userSpaceOnUse" x1="78.973" y1="133.3046" x2="123.9809" y2="-16.0938" gradientTransform="matrix(1 0 0 -1 0 202)">
	<stop  offset="0" style="stop-color:#40A9FF"/>
	<stop  offset="1" style="stop-color:#096DD9"/>
</linearGradient>
<path class="st3" d="M153.4,80.1H45.9C33.5,80.1,20,86.9,20,106v63c0,12.5,6.8,25.9,25.9,25.9h107.5c19.1,0,25.9-13.3,25.9-25.9v-63
	C179.3,86.9,165.9,80.1,153.4,80.1z M39.3,130.2c0-14.5,11.8-26.3,26.4-26.4c14.6,0,26.4,11.8,26.4,26.4s-11.8,26.4-26.4,26.4
	C51.1,156.6,39.3,144.8,39.3,130.2z M93,172.1L93,172.1c0,2.9-2.4,5.3-5.3,5.3c-2.9,0-5.3-2.4-5.3-5.3s2.4-5.3,5.3-5.3
	c2.9,0,5.3,2.3,5.3,5.3C93,172,93,172,93,172.1z M111.9,177.3C111.9,177.3,111.9,177.3,111.9,177.3c-3,0-5.4-2.4-5.4-5.3v0
	c0-2.9,2.4-5.4,5.3-5.4c2.9,0,5.4,2.4,5.4,5.3C117.2,174.9,114.9,177.3,111.9,177.3z M133.9,156.6c-14.6,0-26.4-11.8-26.4-26.4
	s11.8-26.4,26.4-26.4c14.6,0,26.4,11.8,26.4,26.4C160.2,144.8,148.4,156.6,133.9,156.6z"/>
<linearGradient id="SVGID_4_" gradientUnits="userSpaceOnUse" x1="73.5487" y1="191.9478" x2="115.5942" y2="120.8114" gradientTransform="matrix(1 0 0 -1 0 202)">
	<stop  offset="0" style="stop-color:#40A9FF"/>
	<stop  offset="1" style="stop-color:#096DD9"/>
</linearGradient>
<path class="st4" d="M115.8,46.3h-8.3c-2.2,0-4-1.8-4-4V8.7c0-2-1.7-3.7-3.7-3.7c-2,0-3.7,1.7-3.7,3.7v33.5c0,2.2-1.8,4-4,4h-8.3
	c-4.4,0-7.9,3.5-7.9,7.9v10.6c0,4.4,3.5,7.9,7.9,7.9h32.1c4.4,0,7.9-3.5,7.9-7.9V54.1C123.7,49.8,120.2,46.3,115.8,46.3z"/>
</svg>
