<svg width="47" height="47" viewBox="0 0 47 47" fill="none" xmlns="http://www.w3.org/2000/svg">
<g clip-path="url(#clip0)">
<path d="M20.2411 15.2815H19.1286H18.9375L18.8873 15.4658L18.2293 17.8817C13.4809 17.9612 9.64182 21.8461 9.64182 26.6099V37.6012C9.64182 42.4138 13.5604 46.3306 18.3779 46.3306H28.4021C33.2181 46.3306 37.1367 42.4146 37.1367 37.6012V26.6091V26.6091C37.1359 21.8454 33.2984 17.9605 28.5506 17.8809L27.8926 15.465L27.8424 15.2807H27.6514H26.5381C26.4426 14.0743 25.6613 13.0686 24.591 12.6263L26.2844 2.08433L26.2844 2.08401C26.3752 1.5144 25.9876 0.978999 25.4175 0.888045C24.8485 0.795513 24.3112 1.18491 24.2203 1.75303L20.2411 15.2815ZM20.2411 15.2815C20.3453 13.9638 21.2662 12.8776 22.4925 12.5133L24.2203 1.7532L20.2411 15.2815ZM35.1361 37.3505H35.1346V37.6005C35.1346 41.3108 32.1135 44.3298 28.4013 44.3298H18.3779C14.6642 44.3298 11.6431 41.3108 11.6431 37.6005V26.6091C11.6431 23.139 14.2895 20.2801 17.6718 19.9263L17.052 22.2028L16.9661 22.5185H17.2932H29.4875H29.8148L29.7287 22.2028L29.1083 19.9264C32.4905 20.2809 35.1361 23.1391 35.1361 26.6091V37.3505ZM23.3892 14.3744C23.9409 14.3744 24.4044 14.7635 24.5194 15.2807H22.2591C22.3739 14.7635 22.837 14.3744 23.3892 14.3744ZM19.4925 20.7914L20.5229 17.0086H26.2564L27.2874 20.7914H19.4925Z" fill="#262626" stroke="#262626" stroke-width="0.5"/>
<path d="M20.8144 28.659V28.6591C20.8151 30.3382 19.4462 31.7078 17.763 31.7078C16.0799 31.7078 14.7117 30.3383 14.7117 28.659C14.7117 26.9775 16.0807 25.6088 17.763 25.6088C19.4453 25.6088 20.8144 26.9783 20.8144 28.659ZM17.763 23.7962C15.0803 23.7962 12.8988 25.9767 12.8988 28.6583C12.8988 31.3401 15.0813 33.5181 17.763 33.5181C20.4448 33.5181 22.6273 31.3393 22.6273 28.6583C22.6273 25.9774 20.4457 23.7962 17.763 23.7962Z" fill="#262626" stroke="#262626" stroke-width="0.5"/>
<path d="M32.0676 28.659V28.6591C32.0683 30.3382 30.6994 31.7078 29.0162 31.7078C27.3332 31.7078 25.9649 30.3383 25.9649 28.659C25.9649 26.9775 27.3339 25.6088 29.0162 25.6088C30.6985 25.6088 32.0676 26.9783 32.0676 28.659ZM29.0162 23.7962C26.3328 23.7962 24.1512 25.9766 24.1512 28.6583C24.1512 31.3401 26.3338 33.5181 29.0162 33.5181C31.698 33.5181 33.8797 31.3393 33.8797 28.6583C33.8797 25.9775 31.6982 23.7962 29.0162 23.7962Z" fill="#262626" stroke="#262626" stroke-width="0.5"/>
<path d="M22.2948 36.6884V36.9384H22.5448H24.2337H24.4837V36.6884V34.8995C24.4837 34.2947 23.994 33.8057 23.3893 33.8057C22.7852 33.8057 22.2948 34.2954 22.2948 34.8995V36.6884Z" fill="#262626" stroke="#262626" stroke-width="0.5"/>
<path d="M24.4837 37.3312V37.0812H24.2337H22.5448H22.2948V37.3312V39.1186C22.2948 39.7227 22.7852 40.2124 23.3893 40.2124C23.9933 40.2124 24.4837 39.7227 24.4837 39.1186V37.3312Z" fill="#262626" stroke="#262626" stroke-width="0.5"/>
</g>
<defs>
<clipPath id="clip0">
<rect width="46" height="46" fill="white" transform="translate(0.38916 0.602539)"/>
</clipPath>
</defs>
</svg>
