<svg width="556" height="46" viewBox="0 0 556 46" fill="none" xmlns="http://www.w3.org/2000/svg">
<path d="M33.7541 0.585205H26.5863L0.180237 44.9068H6.53288L14.9637 30.4889L30.1764 4.51064L45.6007 30.4889L54.156 44.9068H60.3779L33.7541 0.585205Z" fill="white"/>
<path d="M217.596 0.122437H237.357C246.649 0.122437 252.599 1.35685 255.208 3.82568C257.817 6.2945 259.124 12.0181 259.128 20.9964V23.9898C259.118 27.3572 258.927 30.7216 258.556 34.0688C258.174 37.5869 256.903 40.3005 254.742 42.2098C252.581 44.119 249.331 45.0715 244.992 45.0674C243.654 45.197 241.943 45.2834 239.871 45.3328C237.799 45.3822 235.814 45.3945 233.942 45.3945H222.742C220.113 45.4005 217.486 45.2687 214.871 44.9995C212.69 44.8135 210.546 44.3189 208.506 43.5306C206.738 42.7744 205.259 41.4768 204.288 39.8273C203.083 37.7328 202.363 35.3991 202.178 32.9949C201.843 29.6953 201.687 26.3802 201.712 23.064C201.712 19.4636 201.755 16.8755 201.842 15.2995C202.043 13.0227 202.413 10.7637 202.95 8.54114C203.196 7.18474 203.75 5.90174 204.57 4.78953C205.391 3.67732 206.456 2.76513 207.685 2.12219C210.186 0.78902 213.49 0.122437 217.596 0.122437ZM218.766 40.4569L230.32 40.7223H235.92C239.098 40.7223 242.298 40.5659 245.521 40.2532C248.75 39.9446 250.884 38.8892 251.942 37.0931C253 35.297 253.516 32.5998 253.516 29.0077V19.873C253.532 17.4393 253.422 15.0064 253.186 12.5838C253.09 10.9123 252.584 9.28928 251.712 7.85604C251.011 6.81195 249.952 6.05541 248.731 5.72667C247.509 5.39516 246.26 5.17209 244.998 5.06009C243.725 4.94899 242.372 4.89344 240.941 4.89344L230.395 4.77617L220.017 4.90579C214.919 4.90579 211.569 5.56208 209.968 6.87468C208.367 8.18727 207.56 11.2856 207.548 16.1698L207.374 22.848V26.113C207.374 31.7172 207.977 35.509 209.184 37.4881C210.391 39.4673 213.585 40.4569 218.766 40.4569Z" fill="white"/>
<path d="M317.671 44.9068H276.942V0.585205H282.367V40.4568H317.671V44.9068Z" fill="white"/>
<path d="M346.47 0.122437H366.231C375.519 0.122437 381.467 1.35685 384.076 3.82568C386.685 6.2945 387.992 12.0181 387.996 20.9964V23.9898C387.988 27.3571 387.799 30.7215 387.43 34.0688C387.048 37.5869 385.775 40.3005 383.609 42.2098C381.444 44.119 378.196 45.0715 373.866 45.0674C372.526 45.195 370.817 45.2834 368.739 45.3328C366.667 45.376 364.688 45.3945 362.816 45.3945H351.616C348.987 45.4005 346.36 45.2687 343.745 44.9995C341.573 44.8027 339.44 44.2998 337.411 43.5059C335.643 42.7498 334.164 41.4521 333.193 39.8027C331.988 37.7081 331.268 35.3745 331.083 32.9702C330.728 29.6738 330.555 26.3606 330.567 23.0455C330.567 19.4451 330.613 16.857 330.704 15.281C330.904 13.0042 331.274 10.7451 331.811 8.52262C332.059 7.17069 332.612 5.89212 333.43 4.78338C334.248 3.67464 335.31 2.76469 336.534 2.12219C339.048 0.78902 342.36 0.122437 346.47 0.122437ZM347.64 40.4569L359.194 40.7223H364.794C367.971 40.7223 371.174 40.5659 374.401 40.2532C377.628 39.9405 379.766 38.8871 380.816 37.0931C381.873 35.2991 382.4 32.604 382.396 29.0077V19.873C382.414 17.4391 382.301 15.006 382.06 12.5838C381.969 10.9123 381.465 9.28871 380.592 7.85604C379.89 6.81313 378.831 6.05695 377.611 5.72667C376.389 5.39516 375.14 5.17209 373.878 5.06009C372.605 4.94899 371.253 4.89344 369.822 4.89344L359.306 4.76383L348.922 4.89344C343.832 4.89344 340.485 5.54974 338.88 6.86233C337.274 8.17493 336.455 11.2774 336.422 16.1698L336.223 22.8418V26.1068C336.223 31.7111 336.826 35.5028 338.033 37.482C339.24 39.4611 342.443 40.4528 347.64 40.4569V40.4569Z" fill="white"/>
<path d="M483.628 44.9068H478.202V0.585205H483.628V44.9068Z" fill="white"/>
<path d="M182.733 27.1994C181.327 26.1584 179.127 25.4383 176.132 25.0392C180.106 24.4631 182.686 23.4345 183.872 21.9532C185.058 20.4719 185.649 17.7356 185.645 13.7443C185.645 8.55979 184.474 5.06228 182.13 3.25181C179.786 1.44134 175.912 0.552559 170.507 0.585476H134.134V44.9071H139.553V5.10343H169.362C173.158 5.10343 175.881 5.62394 177.532 6.66496C179.183 7.70598 180.012 9.95467 180.021 13.411C180.021 17.0484 179.249 19.4741 177.706 20.6879C176.163 21.9017 173.427 22.5189 169.499 22.5395H148.569V26.9896H170.041C173.525 26.9896 175.97 27.5224 177.376 28.5881C178.783 29.6538 179.486 31.8244 179.486 35.0997V44.9071H184.849V32.8777C184.845 30.1373 184.14 28.2446 182.733 27.1994Z" fill="white"/>
<path d="M460.943 27.4953V26.9892L460.881 23.0453H431.806V27.4953H460.943V27.4953Z" fill="white"/>
<path d="M453.912 37.0684C453.016 38.883 450.892 39.9405 447.541 40.2409C444.189 40.5412 441.493 40.6976 439.452 40.7099H438.444L433.622 40.6421L422.236 40.5124C415.715 40.5124 412.109 39.2595 411.416 36.7536C410.723 34.2478 410.377 30.6042 410.377 25.8229L410.644 14.3984C410.644 10.4977 411.347 8.05971 412.754 7.08453C414.16 6.11551 416.561 5.46745 419.959 5.15884L428.732 4.82555L434.027 4.89344L443.136 4.96134C447.649 4.96134 450.729 5.41601 452.375 6.32536C454.022 7.23471 454.852 9.63771 454.864 13.5343H460.221C460.221 9.06165 459.317 5.76988 457.508 3.65903C455.7 1.54818 452.647 0.480416 448.35 0.455728L439.452 0.122437L434.027 0.190329L422.765 0.319943C414.884 0.319943 409.906 1.93702 407.832 5.17119C405.758 8.40535 404.729 14.3346 404.746 22.9591V25.4279C404.746 33.752 406.109 39.1669 408.834 41.6728C411.559 44.1786 417.159 45.4295 425.633 45.4254H444.43C451.398 45.4254 455.897 44.0676 457.925 41.3518C458.957 39.862 459.681 38.1836 460.053 36.4142H454.211C454.093 36.6549 454.005 36.8709 453.912 37.0684Z" fill="white"/>
<path d="M555.323 44.907L536.172 27.6499L532.121 31.3038L547.153 44.907H555.323Z" fill="white"/>
<path d="M552.643 0.585205H544.604L525.422 17.9657L506.14 0.585205H498.188L521.39 21.5826L495.643 44.9068H503.788L525.434 25.2488L525.44 25.255L530.188 20.9654L552.643 0.585205Z" fill="white"/>
<path d="M114.846 19.7928H77.726V24.2429H114.846V19.7928Z" fill="white"/>
<path d="M116.253 0.585205H77.726V5.10316H116.253V0.585205Z" fill="white"/>
<path d="M116.725 40.4568H77.726V44.9068H116.725V40.4568Z" fill="white"/>
</svg>
