<svg width="200" height="200" viewBox="0 0 200 200" fill="none" xmlns="http://www.w3.org/2000/svg">
<g clip-path="url(#clip0)">
<path d="M173.294 142.232C174.857 145.038 177.994 146.41 181.207 146.394C186.676 146.369 191.06 151.029 190.588 156.588C190.172 161.513 185.732 165.144 180.788 165.144H150.001V168.269H81.2506H56.2506H21.8756C16.5318 168.269 12.2318 163.797 12.5131 158.391C12.7787 153.319 17.3287 149.519 22.4068 149.519H25.0006C28.7974 149.519 31.8006 146.135 31.1662 142.219C30.6662 139.147 27.7787 137.019 24.6662 137.019H9.37555C4.0318 137.019 -0.268196 132.547 0.013054 127.141C0.278679 122.069 4.82868 118.269 9.9068 118.269H29.6881C34.0037 118.269 37.5006 114.772 37.5006 110.457C37.5006 106.141 34.0037 102.644 29.6881 102.644C25.3724 102.644 21.8756 99.1474 21.8756 94.8317C21.8756 90.5161 25.3724 87.0192 29.6881 87.0192H56.2506V65.1442H32.8131C26.5787 65.1442 21.5599 59.9255 21.8912 53.6192C22.2006 47.7036 27.5099 43.2692 33.4318 43.2692H56.2506V30.7692H131.251H150.001H176.563C182.797 30.7692 187.816 35.988 187.485 42.2942C187.176 48.2099 181.866 52.6442 175.944 52.6442H167.188C160.954 52.6442 155.935 57.863 156.266 64.1692C156.576 70.0849 161.885 74.5192 167.807 74.5192H175.001C180.554 74.5192 184.982 79.3505 184.307 85.038C183.747 89.7536 179.476 93.0755 174.732 93.2723C170.991 93.4286 168.101 96.8755 168.876 100.791C169.463 103.754 172.26 105.769 175.279 105.769H189.063C195.297 105.769 200.316 110.988 199.985 117.294C199.676 123.21 194.366 127.644 188.444 127.644H181.251C174.401 127.644 169.269 134.988 173.294 142.232ZM7.81305 102.644C12.1287 102.644 15.6256 99.1474 15.6256 94.8317C15.6256 90.5161 12.1287 87.0192 7.81305 87.0192C3.49743 87.0192 0.000553955 90.5161 0.000553955 94.8317C0.000553955 99.1474 3.49743 102.644 7.81305 102.644Z" fill="#E6F7FF"/>
<path d="M156.25 181.25H50C44.8219 181.25 40.625 177.053 40.625 171.875V28.125C40.625 22.9469 44.8219 18.75 50 18.75H114.866C117.353 18.75 119.737 19.7375 121.494 21.4969L162.878 62.8812C164.637 64.6375 165.625 67.0219 165.625 69.5094V96.0261C165.625 96.5858 165.742 97.1393 165.97 97.6507L177.302 123.149C177.82 124.313 177.752 125.653 177.12 126.758L166.152 145.953C165.807 146.557 165.625 147.241 165.625 147.937V171.875C165.625 177.053 161.428 181.25 156.25 181.25Z" fill="url(#paint0_linear)"/>
<path d="M162.878 62.8813L121.494 21.4969V21.4969C120.39 20.393 118.75 21.4014 118.75 22.9626V56.25C118.75 61.4281 122.947 65.625 128.125 65.625H161.412C162.975 65.625 163.986 63.9846 162.878 62.8813V62.8813Z" fill="url(#paint1_linear)"/>
<path d="M128.125 65.625C122.947 65.625 118.75 61.4281 118.75 56.25V65.625C118.75 70.8031 122.947 75 128.125 75H161.625C163.834 75 165.625 73.2091 165.625 71V69.5094C165.625 69.0254 165.584 68.5467 165.507 68.0759C165.253 66.5301 163.748 65.625 162.181 65.625H128.125Z" fill="url(#paint2_linear)"/>
<path d="M100 68.75H65.625C62.1719 68.75 59.375 65.9531 59.375 62.5C59.375 59.0469 62.1719 56.25 65.625 56.25H100C103.453 56.25 106.25 59.0469 106.25 62.5C106.25 65.9531 103.453 68.75 100 68.75Z" fill="#F1FCFF"/>
<path d="M65.625 115.625H109.375C112.828 115.625 115.625 118.422 115.625 121.875C115.625 125.328 112.828 128.125 109.375 128.125H65.625C62.1719 128.125 59.375 125.328 59.375 121.875C59.375 118.422 62.1719 115.625 65.625 115.625Z" fill="#F1FCFF"/>
<path d="M93.75 153.125H65.625C62.1719 153.125 59.375 150.328 59.375 146.875C59.375 143.422 62.1719 140.625 65.625 140.625H93.75C97.2031 140.625 100 143.422 100 146.875C100 150.328 97.2031 153.125 93.75 153.125ZM65.625 90.625H125C128.453 90.625 131.25 93.4219 131.25 96.875C131.25 100.328 128.453 103.125 125 103.125H65.625C62.1719 103.125 59.375 100.328 59.375 96.875C59.375 93.4219 62.1719 90.625 65.625 90.625Z" fill="#F1FCFF"/>
<path d="M112.875 134.375H148.438C152.753 134.375 156.25 137.872 156.25 142.188C156.25 146.503 152.753 150 148.438 150H120.687C116.372 150 112.875 146.503 112.875 142.188V134.375ZM120.691 103.125H148.438C152.753 103.125 156.25 106.622 156.25 110.938C156.25 115.253 152.753 118.75 148.438 118.75H112.878V110.938C112.878 106.622 116.375 103.125 120.691 103.125Z" fill="#F1FCFF"/>
<path d="M198.178 167.462L176.972 146.256C181.609 139.834 184.375 131.966 184.375 123.437C184.375 101.862 166.888 84.375 145.313 84.375C123.738 84.375 106.25 101.862 106.25 123.437C106.25 145.012 123.738 162.5 145.313 162.5C153.841 162.5 161.709 159.734 168.131 155.097L189.338 176.303C191.769 178.734 195.747 178.734 198.175 176.303C200.603 173.872 200.606 169.894 198.178 167.462ZM118.75 123.437C118.75 108.769 130.644 96.875 145.313 96.875C159.981 96.875 171.875 108.769 171.875 123.437C171.875 138.106 159.981 150 145.313 150C130.644 150 118.75 138.106 118.75 123.437Z" fill="url(#paint3_linear)"/>
</g>
<defs>
<linearGradient id="paint0_linear" x1="58.5498" y1="18.75" x2="188.699" y2="203.793" gradientUnits="userSpaceOnUse">
<stop stop-color="#40A9FF"/>
<stop offset="1" stop-color="#096DD9"/>
</linearGradient>
<linearGradient id="paint1_linear" x1="119" y1="66" x2="181.078" y2="-8.95037" gradientUnits="userSpaceOnUse">
<stop stop-color="#40A9FF"/>
<stop offset="1" stop-color="#096DD9"/>
</linearGradient>
<linearGradient id="paint2_linear" x1="124.861" y1="56.25" x2="132.05" y2="86.4519" gradientUnits="userSpaceOnUse">
<stop stop-color="#40A9FF"/>
<stop offset="1" stop-color="#096DD9"/>
</linearGradient>
<linearGradient id="paint3_linear" x1="153.125" y1="59.8313" x2="153.125" y2="167.484" gradientUnits="userSpaceOnUse">
<stop stop-color="#A4A4A4"/>
<stop offset="0.63" stop-color="#7F7F7F"/>
<stop offset="1" stop-color="#6F6F6F"/>
</linearGradient>
<clipPath id="clip0">
<rect width="200" height="200" fill="white"/>
</clipPath>
</defs>
</svg>
