<svg width="200" height="200" viewBox="0 0 200 200" fill="none" xmlns="http://www.w3.org/2000/svg">
<path d="M169.629 140.889C171.114 143.555 174.094 144.858 177.146 144.844C182.341 144.82 186.507 149.246 186.058 154.528C185.663 159.206 181.445 162.656 176.748 162.656H147.5V165.625H82.1879H58.4379H25.7817C20.7052 165.625 16.6202 161.376 16.8874 156.241C17.1397 151.422 21.4622 147.812 26.2864 147.812H28.7505C32.3575 147.812 35.2105 144.597 34.6078 140.877C34.1328 137.959 31.3897 135.937 28.4328 135.937H13.9068C8.83021 135.937 4.74521 131.689 5.0124 126.553C5.26474 121.735 9.58724 118.125 14.4114 118.125H33.2036C37.3034 118.125 40.6254 114.803 40.6254 110.703C40.6254 106.603 37.3034 103.281 33.2036 103.281C29.1038 103.281 25.7817 99.9591 25.7817 95.8592C25.7817 91.7594 29.1038 88.4374 33.2036 88.4374H58.4379V67.6562H36.1723C30.2497 67.6562 25.4819 62.6984 25.7966 56.7075C26.0905 51.0876 31.1344 46.875 36.7601 46.875H58.4379V35H129.688H147.5H172.735C178.657 35 183.425 39.9578 183.11 45.9487C182.816 51.5686 177.772 55.7812 172.147 55.7812H163.828C157.906 55.7812 153.138 60.739 153.453 66.7299C153.746 72.3498 158.79 76.5624 164.416 76.5624H171.25C176.526 76.5624 180.732 81.1521 180.091 86.5552C179.56 91.035 175.501 94.1908 170.995 94.3778C167.441 94.5263 164.695 97.8008 165.431 101.521C165.99 104.335 168.647 106.25 171.514 106.25H184.61C190.532 106.25 195.3 111.208 194.985 117.199C194.691 122.818 189.647 127.031 184.022 127.031H177.188C170.68 127.031 165.805 134.008 169.629 140.889ZM12.4224 103.281C16.5222 103.281 19.8442 99.9591 19.8442 95.8592C19.8442 91.7594 16.5222 88.4374 12.4224 88.4374C8.32255 88.4374 5.00053 91.7594 5.00053 95.8592C5.00053 99.9591 8.32255 103.281 12.4224 103.281Z" fill="#E6F7FF"/>
<path d="M111.515 17.1212H94.2424V34.394H111.515V17.1212Z" fill="url(#paint0_linear)"/>
<path d="M164.245 61.551L153.449 50.7555L161.174 43.0303L171.97 53.8258L164.245 61.551Z" fill="url(#paint1_linear)"/>
<path d="M115.833 21.4394H89.9243C87.5406 21.4394 85.6061 19.5049 85.6061 17.1212V8.48487C85.6061 6.10123 87.5406 4.16669 89.9243 4.16669H115.833C118.217 4.16669 120.152 6.10123 120.152 8.48487V17.1212C120.152 19.5049 118.217 21.4394 115.833 21.4394Z" fill="url(#paint2_linear)"/>
<path d="M171.97 54.7671L160.233 43.0303C158.614 41.411 158.614 38.7812 160.233 37.1619L166.101 31.2935C167.721 29.6742 170.35 29.6742 171.97 31.2935L183.707 43.0303C185.326 44.6496 185.326 47.2794 183.707 48.8987L177.838 54.7671C176.219 56.3908 173.589 56.3908 171.97 54.7671Z" fill="url(#paint3_linear)"/>
<path d="M102.879 194.167C148.191 194.167 184.924 157.434 184.924 112.121C184.924 66.8088 148.191 30.0758 102.879 30.0758C57.5664 30.0758 20.8334 66.8088 20.8334 112.121C20.8334 157.434 57.5664 194.167 102.879 194.167Z" fill="url(#paint4_linear)"/>
<path d="M102.879 181.212C141.037 181.212 171.97 150.279 171.97 112.121C171.97 73.9634 141.037 43.0303 102.879 43.0303C64.721 43.0303 33.788 73.9634 33.788 112.121C33.788 150.279 64.721 181.212 102.879 181.212Z" fill="url(#paint5_radial)"/>
<path d="M102.879 116.439C101.773 116.439 100.668 116.016 99.8259 115.174L63.1861 78.5344C61.4977 76.846 61.4977 74.1169 63.1861 72.4285C64.8745 70.7401 67.6036 70.7401 69.292 72.4285L105.932 109.068C107.62 110.757 107.62 113.486 105.932 115.174C105.09 116.016 103.984 116.439 102.879 116.439Z" fill="url(#paint6_linear)"/>
<path d="M102.879 120.758C107.649 120.758 111.515 116.891 111.515 112.121C111.515 107.351 107.649 103.485 102.879 103.485C98.1091 103.485 94.2424 107.351 94.2424 112.121C94.2424 116.891 98.1091 120.758 102.879 120.758Z" fill="#F1FCFF"/>
<defs>
<linearGradient id="paint0_linear" x1="102.879" y1="39.1958" x2="102.879" y2="21.9144" gradientUnits="userSpaceOnUse">
<stop stop-color="#A4A4A4"/>
<stop offset="0.619" stop-color="#808080"/>
<stop offset="1" stop-color="#6F6F6F"/>
</linearGradient>
<linearGradient id="paint1_linear" x1="162.709" y1="66.6998" x2="162.709" y2="48.1698" gradientUnits="userSpaceOnUse">
<stop stop-color="#A4A4A4"/>
<stop offset="0.619" stop-color="#808080"/>
<stop offset="1" stop-color="#6F6F6F"/>
</linearGradient>
<linearGradient id="paint2_linear" x1="102.879" y1="26.2412" x2="102.879" y2="8.95987" gradientUnits="userSpaceOnUse">
<stop stop-color="#A4A4A4"/>
<stop offset="0.619" stop-color="#808080"/>
<stop offset="1" stop-color="#6F6F6F"/>
</linearGradient>
<linearGradient id="paint3_linear" x1="171.97" y1="63.1867" x2="171.97" y2="37.2679" gradientUnits="userSpaceOnUse">
<stop stop-color="#A4A4A4"/>
<stop offset="0.619" stop-color="#808080"/>
<stop offset="1" stop-color="#6F6F6F"/>
</linearGradient>
<linearGradient id="paint4_linear" x1="42.2246" y1="30.0758" x2="125.014" y2="228.194" gradientUnits="userSpaceOnUse">
<stop stop-color="#40A9FF"/>
<stop offset="1" stop-color="#096DD9"/>
</linearGradient>
<radialGradient id="paint5_radial" cx="0" cy="0" r="1" gradientUnits="userSpaceOnUse" gradientTransform="translate(108.075 123.065) rotate(-59.1395) scale(202.136 191.544)">
<stop stop-color="#40A9FF"/>
<stop offset="1" stop-color="#096DD9"/>
</radialGradient>
<linearGradient id="paint6_linear" x1="84.5589" y1="129.026" x2="84.5589" y2="83.7266" gradientUnits="userSpaceOnUse">
<stop stop-color="#A4A4A4"/>
<stop offset="0.619" stop-color="#808080"/>
<stop offset="1" stop-color="#6F6F6F"/>
</linearGradient>
</defs>
</svg>
