<svg width="200" height="200" viewBox="0 0 200 200" fill="none" xmlns="http://www.w3.org/2000/svg">
<g clip-path="url(#clip0)">
<path d="M173.294 142.232C174.857 145.038 177.994 146.41 181.207 146.394C186.676 146.369 191.06 151.029 190.588 156.588C190.172 161.513 185.732 165.144 180.788 165.144H150.001V168.269H81.2506H56.2506H21.8756C16.5318 168.269 12.2318 163.797 12.5131 158.391C12.7787 153.319 17.3287 149.519 22.4068 149.519H25.0006C28.7974 149.519 31.8006 146.135 31.1662 142.219C30.6662 139.147 27.7787 137.019 24.6662 137.019H9.37555C4.0318 137.019 -0.268196 132.547 0.013054 127.141C0.278679 122.069 4.82868 118.269 9.9068 118.269H29.6881C34.0037 118.269 37.5006 114.772 37.5006 110.457C37.5006 106.141 34.0037 102.644 29.6881 102.644C25.3724 102.644 21.8756 99.1474 21.8756 94.8317C21.8756 90.5161 25.3724 87.0192 29.6881 87.0192H56.2506V65.1442H32.8131C26.5787 65.1442 21.5599 59.9255 21.8912 53.6192C22.2006 47.7036 27.5099 43.2692 33.4318 43.2692H56.2506V30.7692H131.251H150.001H176.563C182.797 30.7692 187.816 35.988 187.485 42.2942C187.176 48.2099 181.866 52.6442 175.944 52.6442H167.188C160.954 52.6442 155.935 57.863 156.266 64.1692C156.576 70.0849 161.885 74.5192 167.807 74.5192H175.001C180.554 74.5192 184.982 79.3505 184.307 85.038C183.747 89.7536 179.476 93.0755 174.732 93.2723C170.991 93.4286 168.101 96.8755 168.876 100.791C169.463 103.754 172.26 105.769 175.279 105.769H189.063C195.297 105.769 200.316 110.988 199.985 117.294C199.676 123.21 194.366 127.644 188.444 127.644H181.251C174.401 127.644 169.269 134.988 173.294 142.232ZM7.81305 102.644C12.1287 102.644 15.6256 99.1474 15.6256 94.8317C15.6256 90.5161 12.1287 87.0192 7.81305 87.0192C3.49743 87.0192 0.000553955 90.5161 0.000553955 94.8317C0.000553955 99.1474 3.49743 102.644 7.81305 102.644Z" fill="#E6F7FF"/>
<path d="M36.5937 29.9875L96.925 19.025C98.9563 18.6563 101.044 18.6563 103.075 19.025L163.406 29.9875C166.631 30.575 168.909 33.3406 168.741 36.4688L164.694 105.484C163.291 131.597 148.844 155.481 125.847 169.712L112.1 178.219C105.713 182.172 97.5125 182.262 91.0281 178.456L75.8031 169.519C51.8469 155.456 36.6781 131.053 35.2406 104.256L31.2594 36.4688C31.0906 33.3406 33.3687 30.575 36.5937 29.9875Z" fill="url(#paint0_linear)"/>
<path d="M149.125 52L148.469 64L148.312 67.0937L148.125 70.4375L147.875 74.875L147.531 81.4062L145.969 104.469C144.906 124.375 133.688 142.812 115.969 153.781L103.377 161.304C102.14 162.043 100.601 162.059 99.3477 161.347L85.2812 153.344C80.5937 150.594 76.3437 147.313 72.5937 143.656C71.9062 142.969 71.25 142.312 70.625 141.625L70.5937 141.594C70.0937 141.031 69.5937 140.5 69.125 139.969C68.9687 139.781 68.7812 139.562 68.625 139.375C64.0986 134.099 60.5076 128.2 58.0391 121.833C58.0339 121.819 58.026 121.807 58.0158 121.797V121.797C58.0054 121.787 57.9973 121.774 57.9921 121.76C57.7335 121.071 57.475 120.381 57.2412 119.691C57.2052 119.585 57.1752 119.475 57.125 119.375V119.375C56.4687 117.563 55.9375 115.687 55.5 113.812C54.6562 110.375 54.1562 106.844 53.9687 103.25L50.875 52C50.7187 48.875 52.9062 46.0937 56 45.5312L94.4062 38.5312C98.0937 37.875 101.906 37.875 105.594 38.5312L135.875 44.0625L138.531 44.5313L141.219 45.0312L144 45.5312C144.75 45.6562 145.469 45.9375 146.094 46.3125C147.656 47.25 148.75 48.8437 149.031 50.6562C149.125 51.0937 149.156 51.5312 149.125 52Z" fill="url(#paint1_radial)"/>
<path d="M135.134 83.7844L126.641 81.6625C126.231 80.4469 125.738 79.2719 125.172 78.1375L129.681 70.6219C130.419 69.3938 130.225 67.8188 129.212 66.8031L123.825 61.4156C122.813 60.4031 121.238 60.2094 120.006 60.9469L112.491 65.4562C111.356 64.8906 110.181 64.3969 108.966 63.9875L106.844 55.4937C106.494 54.1 105.244 53.125 103.809 53.125H96.1906C94.7563 53.125 93.5063 54.1 93.1594 55.4906L91.0375 63.9844C89.8219 64.3938 88.6469 64.8875 87.5125 65.4531L79.9969 60.9438C78.7688 60.2063 77.1938 60.4 76.1781 61.4125L70.7906 66.8C69.7781 67.8125 69.5844 69.3875 70.3219 70.6187L74.8312 78.1344C74.2656 79.2688 73.7719 80.4438 73.3625 81.6594L64.8687 83.7812C63.475 84.1312 62.5 85.3813 62.5 86.8156V94.4344C62.5 95.8687 63.475 97.1187 64.8656 97.4656L73.3594 99.5875C73.7688 100.803 74.2625 101.978 74.8281 103.112L70.3188 110.628C69.5813 111.856 69.775 113.431 70.7875 114.447L76.175 119.834C77.1875 120.847 78.7625 121.041 79.9937 120.303L87.5094 115.794C88.6438 116.359 89.8188 116.853 91.0344 117.262L93.1562 125.756C93.5062 127.15 94.7563 128.125 96.1906 128.125H103.809C105.244 128.125 106.494 127.15 106.841 125.756L108.963 117.262C110.178 116.853 111.353 116.359 112.487 115.794L120.003 120.303C121.231 121.041 122.806 120.847 123.822 119.834L129.209 114.447C130.222 113.434 130.416 111.859 129.678 110.628L125.169 103.112C125.734 101.978 126.228 100.803 126.637 99.5875L135.131 97.4656C136.525 97.1187 137.5 95.8687 137.5 94.4344V86.8156C137.5 85.3813 136.525 84.1313 135.134 83.7844ZM100 106.25C91.375 106.25 84.375 99.25 84.375 90.625C84.375 82 91.375 75 100 75C108.625 75 115.625 82 115.625 90.625C115.625 99.25 108.625 106.25 100 106.25Z" fill="#F1FCFF"/>
<path d="M100 71.875C89.6563 71.875 81.25 80.2813 81.25 90.625C81.25 100.969 89.6563 109.375 100 109.375C110.344 109.375 118.75 100.969 118.75 90.625C118.75 80.2813 110.344 71.875 100 71.875ZM100 100C94.8125 100 90.625 95.8125 90.625 90.625C90.625 85.4375 94.8125 81.25 100 81.25C105.187 81.25 109.375 85.4375 109.375 90.625C109.375 95.8125 105.187 100 100 100Z" fill="url(#paint2_linear)"/>
</g>
<defs>
<linearGradient id="paint0_linear" x1="49.1752" y1="18.7484" x2="140.673" y2="204.019" gradientUnits="userSpaceOnUse">
<stop stop-color="#40A9FF"/>
<stop offset="1" stop-color="#096DD9"/>
</linearGradient>
<radialGradient id="paint1_radial" cx="0" cy="0" r="1" gradientUnits="userSpaceOnUse" gradientTransform="translate(103.697 110.127) rotate(-64.7419) scale(172.809 143.515)">
<stop stop-color="#40A9FF"/>
<stop offset="1" stop-color="#096DD9"/>
</radialGradient>
<linearGradient id="paint2_linear" x1="100" y1="119.8" x2="100" y2="82.2812" gradientUnits="userSpaceOnUse">
<stop stop-color="#A4A4A4"/>
<stop offset="0.619" stop-color="#808080"/>
<stop offset="1" stop-color="#6F6F6F"/>
</linearGradient>
<clipPath id="clip0">
<rect width="200" height="200" fill="white"/>
</clipPath>
</defs>
</svg>
