<svg width="200" height="200" viewBox="0 0 200 200" fill="none" xmlns="http://www.w3.org/2000/svg">
<path d="M120.406 120.185C148.071 120.185 170.498 97.7578 170.498 70.0925C170.498 42.4272 148.071 20 120.406 20C92.7405 20 70.3133 42.4272 70.3133 70.0925C70.3133 97.7578 92.7405 120.185 120.406 120.185Z" fill="url(#paint0_linear)"/>
<path d="M120.406 109.053C141.923 109.053 159.367 91.6099 159.367 70.0925C159.367 48.575 141.923 31.1317 120.406 31.1317C98.8883 31.1317 81.4449 48.575 81.4449 70.0925C81.4449 91.6099 98.8883 109.053 120.406 109.053Z" fill="url(#paint1_radial)"/>
<path d="M128.889 67.3131C124.707 64.0685 119.16 63.4008 118.117 61.5263C117.876 61.0926 118.179 60.1623 118.878 59.6943C119.94 58.9828 122.48 59.2854 123.273 60.0133C125.328 61.9019 128.532 61.7735 130.429 59.7259C132.325 57.679 132.196 54.4885 130.14 52.6C128.814 51.3822 127.16 50.4855 125.364 49.9216C125.299 47.1932 123.061 45 120.306 45C117.509 45 115.242 47.2577 115.242 50.0427V50.2555C108.84 52.9006 106.016 60.5869 109.257 66.4127C112.651 72.5151 119.639 72.9219 122.663 75.2684C123.857 76.1951 123.92 76.9754 123.863 77.4818C123.749 78.4999 122.93 79.5573 121.87 80.0536C120.255 80.8121 116.837 80.296 114.837 78.9931C112.497 77.4683 109.358 78.1216 107.827 80.4523C106.296 82.783 106.952 85.9082 109.292 87.433C110.937 88.5042 113.008 89.3821 115.241 89.917V89.9573C115.241 92.7423 117.509 95 120.305 95C123.102 95 125.369 92.7423 125.369 89.9573V89.5229C125.644 89.4174 125.915 89.3044 126.182 89.1793C134.798 85.144 137.139 73.7154 128.889 67.3131V67.3131Z" fill="#F1FCFF"/>
<path d="M132.212 154.68L125.971 160.921V135.008C125.971 131.935 123.479 129.443 120.406 129.443C117.332 129.443 114.84 131.935 114.84 135.008V160.921L108.599 154.68C106.425 152.506 102.901 152.506 100.727 154.68C98.5535 156.853 98.5535 160.378 100.727 162.551L116.47 178.294C118.641 180.466 122.168 180.467 124.341 178.294L140.083 162.551C142.257 160.378 142.257 156.853 140.083 154.68C137.91 152.507 134.386 152.507 132.212 154.68V154.68Z" fill="url(#paint2_linear)"/>
<path d="M190.873 130.526C187.906 129.733 184.852 131.492 184.056 134.461L181.772 142.987L168.815 120.546C167.278 117.883 163.874 116.971 161.212 118.508C158.55 120.045 157.638 123.449 159.175 126.111L172.131 148.553L163.606 146.268C160.641 145.476 157.585 147.234 156.789 150.204C155.994 153.173 157.756 156.225 160.725 157.021L182.23 162.783C185.198 163.577 188.25 161.819 189.047 158.848L194.809 137.343C195.605 134.373 193.843 131.322 190.873 130.526V130.526Z" fill="url(#paint3_linear)"/>
<path d="M77.2049 146.268L68.6798 148.553L81.6361 126.111C83.1732 123.449 82.2611 120.045 79.5988 118.508C76.937 116.971 73.5326 117.884 71.9959 120.546L59.0395 142.987L56.755 134.462C55.9594 131.493 52.9086 129.732 49.938 130.526C46.9689 131.322 45.207 134.374 46.0026 137.343L51.7649 158.848C52.5587 161.81 55.6032 163.58 58.5819 162.783L80.0864 157.021C83.0556 156.225 84.8175 153.173 84.0219 150.204C83.2263 147.235 80.1744 145.474 77.2049 146.268Z" fill="url(#paint4_linear)"/>
<path d="M92.5782 86.7898C92.5782 93.799 86.9977 99.528 80.0478 99.7692C79.8957 99.7729 79.7435 99.7766 79.5914 99.7766H24.6754L24.5493 43.0943L62.0331 23.551C62.3003 23.41 62.5934 23.3394 62.8903 23.3394C63.0684 23.3394 63.2466 23.3654 63.421 23.4174L88.9979 31.0612L88.9719 31.1168C80.8642 37.6696 74.8347 46.6976 72.037 57.0389L68.371 56.0703C68.0667 55.9887 67.7476 55.9478 67.4247 55.9478C66.3485 55.9478 65.3247 56.4154 64.6196 57.2281L55.5809 67.6622C54.6346 68.7569 54.4082 70.3188 55.0094 71.6362C55.6143 72.9536 56.9387 73.803 58.386 73.803H79.5918C86.7528 73.803 92.5782 79.6285 92.5782 86.7898V86.7898Z" fill="#F7CAA5"/>
<path d="M22.0766 34.8423H10.5657C7.4919 34.8423 5 37.3342 5 40.408V105.342C5 108.416 7.4919 110.908 10.5657 110.908H22.0763C25.15 110.908 27.6419 108.416 27.6419 105.342V40.408C27.6423 37.3342 25.1504 34.8423 22.0766 34.8423V34.8423Z" fill="#2BA6E3"/>
<defs>
<linearGradient id="paint0_linear" x1="83.3736" y1="20" x2="133.92" y2="140.96" gradientUnits="userSpaceOnUse">
<stop stop-color="#40A9FF"/>
<stop offset="1" stop-color="#096DD9"/>
</linearGradient>
<radialGradient id="paint1_radial" cx="0" cy="0" r="1" gradientUnits="userSpaceOnUse" gradientTransform="translate(123.336 76.2639) rotate(-59.1395) scale(113.986 108.013)">
<stop stop-color="#40A9FF"/>
<stop offset="1" stop-color="#096DD9"/>
</radialGradient>
<linearGradient id="paint2_linear" x1="120.405" y1="193.957" x2="120.405" y2="143.451" gradientUnits="userSpaceOnUse">
<stop stop-color="#A4A4A4"/>
<stop offset="0.619" stop-color="#808080"/>
<stop offset="1" stop-color="#6F6F6F"/>
</linearGradient>
<linearGradient id="paint3_linear" x1="175.799" y1="175.543" x2="175.799" y2="130.308" gradientUnits="userSpaceOnUse">
<stop stop-color="#A4A4A4"/>
<stop offset="0.619" stop-color="#808080"/>
<stop offset="1" stop-color="#6F6F6F"/>
</linearGradient>
<linearGradient id="paint4_linear" x1="65.0122" y1="175.543" x2="65.0122" y2="130.308" gradientUnits="userSpaceOnUse">
<stop stop-color="#A4A4A4"/>
<stop offset="0.619" stop-color="#808080"/>
<stop offset="1" stop-color="#6F6F6F"/>
</linearGradient>
</defs>
</svg>
