<svg width="200" height="200" viewBox="0 0 200 200" fill="none" xmlns="http://www.w3.org/2000/svg">
<path d="M169.629 143.07C171.114 145.736 174.094 147.039 177.146 147.024C182.341 147.001 186.507 151.427 186.058 156.708C185.663 161.387 181.445 164.837 176.748 164.837H147.5V167.805H82.1879H58.4379H25.7817C20.7052 167.805 16.6202 163.557 16.8874 158.421C17.1397 153.603 21.4622 149.993 26.2864 149.993H28.7505C32.3575 149.993 35.2105 146.778 34.6078 143.058C34.1328 140.14 31.3897 138.118 28.4328 138.118H13.9068C8.83021 138.118 4.74521 133.87 5.0124 128.734C5.26474 123.916 9.58724 120.306 14.4114 120.306H33.2036C37.3034 120.306 40.6254 116.984 40.6254 112.884C40.6254 108.784 37.3034 105.462 33.2036 105.462C29.1038 105.462 25.7817 102.14 25.7817 98.04C25.7817 93.9402 29.1038 90.6181 33.2036 90.6181H58.4379V69.8369H36.1723C30.2497 69.8369 25.4819 64.8791 25.7966 58.8882C26.0905 53.2684 31.1344 49.0557 36.7601 49.0557H58.4379V37.1807H129.688H147.5H172.735C178.657 37.1807 183.425 42.1385 183.11 48.1295C182.816 53.7493 177.772 57.9619 172.147 57.9619H163.828C157.906 57.9619 153.138 62.9197 153.453 68.9107C153.746 74.5305 158.79 78.7432 164.416 78.7432H171.25C176.526 78.7432 180.732 83.3328 180.091 88.7359C179.56 93.2158 175.501 96.3716 170.995 96.5586C167.441 96.707 164.695 99.9816 165.431 103.701C165.99 106.516 168.647 108.431 171.514 108.431H184.61C190.532 108.431 195.3 113.388 194.985 119.379C194.691 124.999 189.647 129.212 184.022 129.212H177.188C170.68 129.212 165.805 136.188 169.629 143.07ZM12.4224 105.462C16.5222 105.462 19.8442 102.14 19.8442 98.04C19.8442 93.9402 16.5222 90.6181 12.4224 90.6181C8.32255 90.6181 5.00053 93.9402 5.00053 98.04C5.00053 102.14 8.32255 105.462 12.4224 105.462Z" fill="#E6F7FF"/>
<path d="M174.337 100.219C174.337 141.202 141.102 174.437 100.119 174.437C59.135 174.437 25.9 141.202 25.9 100.219C25.9 59.2351 59.135 26 100.119 26C141.102 26 174.337 59.2351 174.337 100.219Z" fill="url(#paint0_radial)"/>
<path d="M100.119 26C59.1944 26 25.9 59.2945 25.9 100.219C25.9 141.143 59.1944 174.437 100.119 174.437C141.043 174.437 174.337 141.143 174.337 100.219C174.337 59.2945 141.043 26 100.119 26ZM150.403 137.022C149.167 138.707 146.739 138.812 144.65 138.812V138.812C141.369 138.812 138.712 141.469 138.712 144.75V144.75C138.712 146.839 138.607 149.267 136.922 150.503C135.959 151.209 134.975 151.888 133.971 152.539C131.796 153.949 128.803 152.45 126.482 151.297C125.695 150.907 124.809 150.687 123.869 150.687C120.588 150.687 117.931 153.344 117.931 156.625V156.625C117.931 158.268 117.294 160.169 115.702 160.578C113.888 161.045 112.042 161.43 110.169 161.733C107.92 162.096 105.983 160.156 104.426 158.493C103.35 157.343 101.821 156.625 100.119 156.625C98.4142 156.625 96.8842 157.344 95.8073 158.496C94.2525 160.159 92.3169 162.097 90.0695 161.734C88.1952 161.431 86.3485 161.045 84.5335 160.578C82.9426 160.169 82.3061 158.267 82.3061 156.625V156.625C82.3061 153.344 79.6491 150.687 76.3686 150.687C75.4295 150.687 74.5441 150.906 73.7582 151.296C71.435 152.447 68.4395 153.947 66.264 152.536C65.2609 151.886 64.2777 151.208 63.3154 150.503C61.63 149.267 61.5249 146.839 61.5249 144.75V144.75C61.5249 141.469 58.8679 138.812 55.5874 138.812V138.812C53.4979 138.812 51.0697 138.707 49.8342 137.022C49.1281 136.059 48.449 135.075 47.798 134.071C46.3878 131.896 47.8875 128.904 49.0398 126.582C49.4303 125.795 49.6499 124.909 49.6499 123.969C49.6499 120.688 46.9929 118.031 43.7124 118.031V118.031C42.0687 118.031 40.1681 117.394 39.7588 115.802C39.2924 113.988 38.9067 112.142 38.604 110.268C38.2406 108.02 40.1812 106.082 41.8442 104.525C42.9937 103.449 43.7124 101.921 43.7124 100.219C43.7124 98.5146 42.9923 96.9849 41.8407 95.908C40.1779 94.3532 38.2404 92.417 38.6034 90.1697C38.9062 88.2954 39.2922 86.4486 39.7588 84.6335C40.1678 83.0426 42.0698 82.4061 43.7124 82.4061V82.4061C46.9929 82.4061 49.6499 79.7491 49.6499 76.4686C49.6499 75.5296 49.4308 74.6441 49.0413 73.8582C47.8898 71.535 46.3901 68.5396 47.8007 66.364C48.4511 65.361 49.1293 64.3777 49.8346 63.4154C51.0698 61.73 53.4979 61.6249 55.5874 61.6249V61.6249C58.8679 61.6249 61.5249 58.9679 61.5249 55.6874V55.6874C61.5249 53.5979 61.63 51.1698 63.3151 49.9343C64.2782 49.2281 65.2623 48.549 66.2662 47.898C68.4409 46.4878 71.4336 47.9875 73.7552 49.1399C74.5418 49.5303 75.4284 49.7499 76.3686 49.7499C79.6491 49.7499 82.3061 47.0929 82.3061 43.8125V43.8125C82.3061 42.1687 82.9433 40.2682 84.5352 39.8588C86.349 39.3925 88.1951 39.0067 90.0687 38.704C92.3175 38.3407 94.2549 40.2812 95.8117 41.9442C96.8879 43.0938 98.4163 43.8125 100.119 43.8125C101.823 43.8125 103.352 43.0923 104.429 41.9407C105.984 40.2779 107.92 38.3404 110.167 38.7035C112.042 39.0063 113.889 39.3922 115.704 39.8588C117.294 40.2679 117.931 42.1698 117.931 43.8125V43.8125C117.931 47.0929 120.588 49.7499 123.869 49.7499C124.808 49.7499 125.693 49.5308 126.479 49.1413C128.802 47.9899 131.798 46.4901 133.973 47.9008C134.976 48.5511 135.959 49.2294 136.922 49.9346C138.607 51.1698 138.712 53.5979 138.712 55.6874V55.6874C138.712 58.9679 141.369 61.6249 144.65 61.6249V61.6249C146.739 61.6249 149.167 61.73 150.403 63.4151C151.109 64.3783 151.788 65.3623 152.439 66.3663C153.849 68.5409 152.35 71.5336 151.197 73.8553C150.807 74.6419 150.587 75.5284 150.587 76.4686C150.587 79.7491 153.244 82.4061 156.525 82.4061V82.4061C158.168 82.4061 160.069 83.0433 160.478 84.6353C160.945 86.449 161.33 88.2951 161.633 90.1688C161.996 92.4176 160.056 94.3549 158.393 95.9118C157.243 96.988 156.525 98.5163 156.525 100.219C156.525 101.923 157.245 103.452 158.396 104.529C160.059 106.084 161.997 108.02 161.634 110.267C161.331 112.142 160.945 113.989 160.478 115.804C160.069 117.395 158.167 118.031 156.525 118.031V118.031C153.244 118.031 150.587 120.688 150.587 123.969C150.587 124.908 150.806 125.793 151.196 126.579C152.347 128.902 153.847 131.898 152.436 134.073C151.786 135.076 151.108 136.059 150.403 137.022Z" fill="url(#paint1_linear)"/>
<path d="M108.233 97.327L96.6547 91.538C94.731 90.5791 93.6207 88.5396 93.8908 86.3546C94.2085 83.7599 96.6399 81.9311 99.2524 81.9311H99.7867C102.405 81.9311 104.938 83.6352 105.724 85.9924C106.119 87.1739 107.351 87.8686 108.595 87.8686H114.63C116.447 87.8686 117.92 86.2358 117.572 84.4546C116.358 78.2172 111.694 73.1526 105.721 71.0804V65.603C105.721 63.1449 103.726 61.1499 101.268 61.1499C98.81 61.1499 96.818 63.1449 96.818 65.603V70.1957C87.6505 71.3357 80.7304 79.8174 82.1613 89.5578C82.9866 95.1628 86.8014 99.8891 91.8691 102.424L102.919 107.949C104.843 108.908 105.953 110.948 105.683 113.133C105.365 115.727 102.934 117.556 100.321 117.556H99.7867C97.1683 117.556 94.636 115.852 93.8492 113.495C93.4574 112.322 92.255 111.619 91.02 111.619H84.943C83.1232 111.619 81.6537 113.254 82.001 115.039C83.2182 121.273 87.8821 126.335 93.8492 128.407V133.884C93.8492 136.342 95.8442 138.337 98.3024 138.337C100.76 138.337 102.755 136.342 102.755 133.884V129.197C110.082 128.086 116.281 122.585 117.4 115.122C118.525 107.64 114.788 100.605 108.233 97.327Z" fill="#F1FCFF"/>
<path d="M178.558 147.441H171.487V123.771C171.487 122.633 170.566 121.712 169.428 121.712H142.67C141.533 121.712 140.612 122.633 140.612 123.771V147.441H133.54C132.322 147.441 131.484 148.364 131.365 149.391C131.293 150.006 131.478 150.661 131.995 151.177L154.286 173.469C155.26 174.443 156.84 174.443 157.813 173.469L180.105 151.177C180.622 150.661 180.807 150.006 180.735 149.391C180.614 148.364 179.777 147.441 178.558 147.441Z" fill="url(#paint2_linear)"/>
<path d="M148.845 134.577C148.845 133.156 147.693 132.004 146.272 132.004C144.851 132.004 143.699 130.852 143.699 129.431C143.699 128.01 144.851 126.858 146.272 126.858H150.389C151.81 126.858 152.962 125.707 152.962 124.285C152.962 122.864 151.81 121.712 150.389 121.712H142.67C141.533 121.712 140.612 122.633 140.612 123.771V137.15H146.272C147.693 137.15 148.845 135.998 148.845 134.577Z" fill="url(#paint3_linear)"/>
<defs>
<radialGradient id="paint0_radial" cx="0" cy="0" r="1" gradientUnits="userSpaceOnUse" gradientTransform="translate(105.7 111.975) rotate(-59.1395) scale(217.138 205.76)">
<stop stop-color="#40A9FF"/>
<stop offset="1" stop-color="#096DD9"/>
</radialGradient>
<linearGradient id="paint1_linear" x1="45.2505" y1="26" x2="156.284" y2="212.567" gradientUnits="userSpaceOnUse">
<stop stop-color="#40A9FF"/>
<stop offset="1" stop-color="#096DD9"/>
</linearGradient>
<linearGradient id="paint2_linear" x1="156.05" y1="107.972" x2="156.05" y2="168.241" gradientUnits="userSpaceOnUse">
<stop stop-color="#A4A4A4"/>
<stop offset="0.63" stop-color="#7F7F7F"/>
<stop offset="1" stop-color="#6F6F6F"/>
</linearGradient>
<linearGradient id="paint3_linear" x1="146.787" y1="117.671" x2="146.787" y2="135.397" gradientUnits="userSpaceOnUse">
<stop stop-color="#A4A4A4"/>
<stop offset="0.63" stop-color="#7F7F7F"/>
<stop offset="1" stop-color="#6F6F6F"/>
</linearGradient>
</defs>
</svg>
