<svg width="200" height="200" viewBox="0 0 200 200" fill="none" xmlns="http://www.w3.org/2000/svg">
<path d="M169.629 140.889C171.114 143.555 174.094 144.858 177.146 144.844C182.341 144.82 186.507 149.246 186.058 154.528C185.663 159.206 181.445 162.656 176.748 162.656H147.5V165.625H82.1879H58.4379H25.7817C20.7052 165.625 16.6202 161.376 16.8874 156.241C17.1397 151.422 21.4622 147.812 26.2864 147.812H28.7505C32.3575 147.812 35.2105 144.597 34.6078 140.877C34.1328 137.959 31.3897 135.937 28.4328 135.937H13.9068C8.83021 135.937 4.74521 131.689 5.0124 126.553C5.26474 121.735 9.58724 118.125 14.4114 118.125H33.2036C37.3034 118.125 40.6254 114.803 40.6254 110.703C40.6254 106.603 37.3034 103.281 33.2036 103.281C29.1038 103.281 25.7817 99.9591 25.7817 95.8592C25.7817 91.7594 29.1038 88.4374 33.2036 88.4374H58.4379V67.6562H36.1723C30.2497 67.6562 25.4819 62.6984 25.7966 56.7075C26.0905 51.0876 31.1344 46.875 36.7601 46.875H58.4379V35H129.688H147.5H172.735C178.657 35 183.425 39.9578 183.11 45.9487C182.816 51.5686 177.772 55.7812 172.147 55.7812H163.828C157.906 55.7812 153.138 60.739 153.453 66.7299C153.746 72.3498 158.79 76.5624 164.416 76.5624H171.25C176.526 76.5624 180.732 81.1521 180.091 86.5552C179.56 91.035 175.501 94.1908 170.995 94.3778C167.441 94.5263 164.695 97.8008 165.431 101.521C165.99 104.335 168.647 106.25 171.514 106.25H184.61C190.532 106.25 195.3 111.208 194.985 117.199C194.691 122.818 189.647 127.031 184.022 127.031H177.188C170.68 127.031 165.805 134.008 169.629 140.889ZM12.4224 103.281C16.5222 103.281 19.8442 99.9591 19.8442 95.8592C19.8442 91.7594 16.5222 88.4374 12.4224 88.4374C8.32255 88.4374 5.00053 91.7594 5.00053 95.8592C5.00053 99.9591 8.32255 103.281 12.4224 103.281Z" fill="#E6F7FF"/>
<path d="M141.981 117.005C145.295 117.005 148.472 115.69 150.813 113.346C151.956 112.204 152.867 110.851 153.494 109.361L173.574 61.6731C173.919 60.8458 174.1 59.9593 174.1 59.062C174.1 55.3463 171.09 52.3365 167.374 52.3365H66.8081C65.0631 52.3365 63.5195 51.2053 62.9939 49.5413L62.9337 49.3509C60.444 41.4667 53.2145 36.1692 44.945 36.1692H33.9836C29.5187 36.1692 25.9 39.788 25.9 44.2529C25.9 48.7177 29.5187 52.3365 33.9836 52.3365H44.945C46.1252 52.3365 47.1599 53.0936 47.5156 54.22L60.7433 96.1087C60.8664 96.4984 60.929 96.9046 60.929 97.3132V122.395C60.929 134.28 70.5997 143.951 82.4853 143.951H147.154C151.619 143.951 155.238 140.332 155.238 135.867C155.238 131.402 151.619 127.784 147.154 127.784H82.4853C79.5132 127.784 77.0962 125.367 77.0962 122.395V121.005C77.0962 118.796 78.8871 117.005 81.0962 117.005H141.981Z" fill="url(#paint0_linear)"/>
<path d="M136.376 71.1982C131.911 71.1982 128.292 74.817 128.292 79.2819C128.292 83.7467 131.911 87.3655 136.376 87.3655H137.723C141.445 87.3655 144.46 90.3807 144.46 94.1018C144.46 97.823 141.445 100.838 137.723 100.838H106.736C102.271 100.838 98.6525 104.457 98.6525 108.922C98.6525 113.387 102.271 117.005 106.736 117.005H141.981C145.295 117.005 148.472 115.69 150.813 113.346C151.956 112.204 152.867 110.851 153.494 109.361L167.224 76.7504C168.334 74.1139 166.399 71.1982 163.538 71.1982H136.376Z" fill="url(#paint1_linear)"/>
<path d="M114.82 71.1982C112.676 71.1982 110.62 72.0499 109.104 73.5659C107.588 75.0819 106.736 77.138 106.736 79.2819C106.736 81.4258 107.588 83.4819 109.104 84.9978C110.62 86.5138 112.676 87.3655 114.82 87.3655C116.964 87.3655 119.02 86.5138 120.536 84.9978C122.052 83.4819 122.903 81.4258 122.903 79.2819C122.903 77.138 122.052 75.0819 120.536 73.5659C119.02 72.0499 116.964 71.1982 114.82 71.1982Z" fill="url(#paint2_linear)"/>
<path d="M136.376 143.951C133.518 143.951 130.776 145.086 128.755 147.108C126.733 149.129 125.598 151.87 125.598 154.729C125.598 157.588 126.733 160.329 128.755 162.35C130.776 164.372 133.518 165.507 136.376 165.507C139.235 165.507 141.976 164.372 143.997 162.35C146.019 160.329 147.154 157.588 147.154 154.729C147.154 151.87 146.019 149.129 143.997 147.108C141.976 145.086 139.235 143.951 136.376 143.951Z" fill="url(#paint3_linear)"/>
<path d="M85.1798 143.951C82.3213 143.951 79.5798 145.086 77.5585 147.108C75.5372 149.129 74.4017 151.87 74.4017 154.729C74.4017 157.588 75.5372 160.329 77.5585 162.35C79.5798 164.372 82.3213 165.507 85.1798 165.507C88.0384 165.507 90.7798 164.372 92.8011 162.35C94.8224 160.329 95.958 157.588 95.958 154.729C95.958 151.87 94.8224 149.129 92.8011 147.108C90.7798 145.086 88.0384 143.951 85.1798 143.951Z" fill="url(#paint4_linear)"/>
<defs>
<linearGradient id="paint0_linear" x1="45.2195" y1="36.1692" x2="91.9969" y2="155.351" gradientUnits="userSpaceOnUse">
<stop stop-color="#40A9FF"/>
<stop offset="1" stop-color="#096DD9"/>
</linearGradient>
<linearGradient id="paint1_linear" x1="107.896" y1="71.1982" x2="134.011" y2="139.124" gradientUnits="userSpaceOnUse">
<stop stop-color="#40A9FF"/>
<stop offset="1" stop-color="#096DD9"/>
</linearGradient>
<linearGradient id="paint2_linear" x1="108.844" y1="71.1982" x2="144.883" y2="110.324" gradientUnits="userSpaceOnUse">
<stop stop-color="#40A9FF"/>
<stop offset="1" stop-color="#096DD9"/>
</linearGradient>
<linearGradient id="paint3_linear" x1="136.376" y1="171.5" x2="136.376" y2="149.933" gradientUnits="userSpaceOnUse">
<stop stop-color="#A4A4A4"/>
<stop offset="0.619" stop-color="#808080"/>
<stop offset="1" stop-color="#6F6F6F"/>
</linearGradient>
<linearGradient id="paint4_linear" x1="85.1906" y1="174.755" x2="85.1906" y2="153.22" gradientUnits="userSpaceOnUse">
<stop stop-color="#A4A4A4"/>
<stop offset="0.619" stop-color="#808080"/>
<stop offset="1" stop-color="#6F6F6F"/>
</linearGradient>
</defs>
</svg>
