<svg width="200" height="200" viewBox="0 0 200 200" fill="none" xmlns="http://www.w3.org/2000/svg">
<path d="M169.629 140.889C171.114 143.555 174.094 144.858 177.146 144.844C182.341 144.82 186.507 149.246 186.058 154.528C185.663 159.206 181.445 162.656 176.748 162.656H147.5V165.625H82.1879H58.4379H25.7817C20.7052 165.625 16.6202 161.376 16.8874 156.241C17.1397 151.422 21.4622 147.812 26.2864 147.812H28.7505C32.3575 147.812 35.2105 144.597 34.6078 140.877C34.1328 137.959 31.3897 135.937 28.4328 135.937H13.9068C8.83021 135.937 4.74521 131.689 5.0124 126.553C5.26474 121.735 9.58724 118.125 14.4114 118.125H33.2036C37.3034 118.125 40.6254 114.803 40.6254 110.703C40.6254 106.603 37.3034 103.281 33.2036 103.281C29.1038 103.281 25.7817 99.9591 25.7817 95.8592C25.7817 91.7594 29.1038 88.4374 33.2036 88.4374H58.4379V67.6562H36.1723C30.2497 67.6562 25.4819 62.6984 25.7966 56.7075C26.0905 51.0876 31.1344 46.875 36.7601 46.875H58.4379V35H129.688H147.5H172.735C178.657 35 183.425 39.9578 183.11 45.9487C182.816 51.5686 177.772 55.7812 172.147 55.7812H163.828C157.906 55.7812 153.138 60.739 153.453 66.7299C153.746 72.3498 158.79 76.5624 164.416 76.5624H171.25C176.526 76.5624 180.732 81.1521 180.091 86.5552C179.56 91.035 175.501 94.1908 170.995 94.3778C167.441 94.5263 164.695 97.8008 165.431 101.521C165.99 104.335 168.647 106.25 171.514 106.25H184.61C190.532 106.25 195.3 111.208 194.985 117.199C194.691 122.818 189.647 127.031 184.022 127.031H177.188C170.68 127.031 165.805 134.008 169.629 140.889ZM12.4224 103.281C16.5222 103.281 19.8442 99.9591 19.8442 95.8592C19.8442 91.7594 16.5222 88.4374 12.4224 88.4374C8.32255 88.4374 5.00053 91.7594 5.00053 95.8592C5.00053 99.9591 8.32255 103.281 12.4224 103.281Z" fill="#E6F7FF"/>
<circle cx="134" cy="130" r="29" fill="#F1FCFF"/>
<path d="M133.941 111C123.48 111 115 119.48 115 129.941C115 140.401 123.48 148.881 133.941 148.881C144.401 148.881 152.881 140.401 152.881 129.941C152.861 119.489 144.393 111.02 133.941 111ZM138.76 133.646C137.609 135.143 135.829 136.02 133.941 136.02V136.057C130.583 136.084 127.84 133.385 127.812 130.028C127.797 128.101 128.695 126.281 130.234 125.122V117.709C130.234 115.662 131.894 114.002 133.941 114.002C135.988 114.002 137.647 115.662 137.647 117.709V125.122C140.309 127.169 140.807 130.985 138.76 133.646Z" fill="url(#paint0_linear)"/>
<circle cx="66" cy="130" r="29" fill="#F1FCFF"/>
<path d="M65.9407 111C55.4802 111 47 119.48 47 129.941C47.0204 140.393 55.4886 148.861 65.9407 148.881C76.4012 148.881 84.8814 140.401 84.8814 129.941C84.8814 119.48 76.4012 111 65.9407 111ZM70.7588 133.647C68.7118 136.308 64.895 136.805 62.2341 134.758C59.5732 132.711 59.0756 128.895 61.1226 126.234C61.4432 125.817 61.8171 125.443 62.2341 125.122V117.709C62.2341 115.662 63.8937 114.002 65.9407 114.002C67.9877 114.002 69.6473 115.662 69.6473 117.709V125.122C72.3082 127.169 72.8058 130.986 70.7588 133.647Z" fill="url(#paint1_linear)"/>
<path d="M153.437 80.0956H45.9462C33.4549 80.0956 20 86.8787 20 106.042V169.054C20 181.545 26.7831 195 45.9462 195H153.437C172.489 195 179.384 181.656 179.384 169.054V106.042C179.272 86.8787 165.892 80.0956 153.437 80.0956ZM39.2743 130.246C39.2947 115.699 51.0816 103.912 65.6282 103.892C80.183 103.892 91.982 115.691 91.982 130.246C91.982 144.801 80.183 156.6 65.6282 156.6C51.0733 156.6 39.2743 144.801 39.2743 130.246ZM92.9828 172.056V172.019C92.9828 174.967 90.593 177.357 87.6453 177.357C84.6977 177.357 82.3078 174.967 82.3078 172.019C82.3078 169.071 84.6977 166.682 87.6453 166.682C90.5726 166.661 92.9624 169.017 92.9833 171.945C92.9833 171.982 92.9833 172.019 92.9828 172.056ZM111.923 177.32C111.898 177.32 111.874 177.32 111.849 177.32C108.936 177.32 106.569 174.969 106.549 172.056V172.019C106.529 169.071 108.902 166.665 111.849 166.645C114.797 166.625 117.203 168.998 117.223 171.945C117.244 174.893 114.871 177.299 111.923 177.32ZM133.904 156.6C119.349 156.6 107.55 144.801 107.55 130.246C107.55 115.691 119.349 103.892 133.904 103.892C148.458 103.892 160.258 115.691 160.258 130.246C160.237 144.792 148.45 156.579 133.904 156.6Z" fill="url(#paint2_linear)"/>
<path d="M115.815 46.2544H107.473C105.263 46.2544 103.473 44.4635 103.473 42.2544V8.70659C103.473 6.65963 101.813 5 99.7659 5C97.719 5 96.0593 6.65963 96.0593 8.70659V42.2544C96.0593 44.4635 94.2685 46.2544 92.0593 46.2544H83.7534C79.3931 46.2544 75.8584 49.7891 75.8584 54.1494V64.7873C75.8584 69.1477 79.3931 72.6824 83.7534 72.6824H115.815C120.176 72.6824 123.711 69.1477 123.711 64.7873V54.1494C123.711 49.7891 120.176 46.2544 115.815 46.2544Z" fill="url(#paint3_linear)"/>
<defs>
<linearGradient id="paint0_linear" x1="133.941" y1="159.412" x2="133.941" y2="121.512" gradientUnits="userSpaceOnUse">
<stop stop-color="#A4A4A4"/>
<stop offset="0.619" stop-color="#808080"/>
<stop offset="1" stop-color="#6F6F6F"/>
</linearGradient>
<linearGradient id="paint1_linear" x1="65.9407" y1="159.412" x2="65.9407" y2="121.512" gradientUnits="userSpaceOnUse">
<stop stop-color="#A4A4A4"/>
<stop offset="0.619" stop-color="#808080"/>
<stop offset="1" stop-color="#6F6F6F"/>
</linearGradient>
<linearGradient id="paint2_linear" x1="40.7775" y1="80.0956" x2="85.7854" y2="229.494" gradientUnits="userSpaceOnUse">
<stop stop-color="#40A9FF"/>
<stop offset="1" stop-color="#096DD9"/>
</linearGradient>
<linearGradient id="paint3_linear" x1="82.0965" y1="5" x2="124.142" y2="76.1364" gradientUnits="userSpaceOnUse">
<stop stop-color="#40A9FF"/>
<stop offset="1" stop-color="#096DD9"/>
</linearGradient>
</defs>
</svg>
