<svg width="200" height="200" viewBox="0 0 200 200" fill="none" xmlns="http://www.w3.org/2000/svg">
<path d="M169.629 139.557C171.114 142.223 174.094 143.526 177.146 143.512C182.341 143.488 186.507 147.914 186.058 153.196C185.663 157.874 181.445 161.324 176.748 161.324H147.5V164.293H82.1879H58.4379H25.7817C20.7052 164.293 16.6202 160.045 16.8874 154.909C17.1397 150.09 21.4622 146.48 26.2864 146.48H28.7505C32.3575 146.48 35.2105 143.265 34.6078 139.545C34.1328 136.627 31.3897 134.605 28.4328 134.605H13.9068C8.83021 134.605 4.74521 130.357 5.0124 125.221C5.26474 120.403 9.58724 116.793 14.4114 116.793H33.2036C37.3034 116.793 40.6254 113.471 40.6254 109.371C40.6254 105.271 37.3034 101.949 33.2036 101.949C29.1038 101.949 25.7817 98.6272 25.7817 94.5273C25.7817 90.4275 29.1038 87.1055 33.2036 87.1055H58.4379V66.3243H36.1723C30.2497 66.3243 25.4819 61.3665 25.7966 55.3755C26.0905 49.7557 31.1344 45.5431 36.7601 45.5431H58.4379V33.6681H129.688H147.5H172.735C178.657 33.6681 183.425 38.6259 183.11 44.6168C182.816 50.2366 177.772 54.4493 172.147 54.4493H163.828C157.906 54.4493 153.138 59.4071 153.453 65.398C153.746 71.0179 158.79 75.2305 164.416 75.2305H171.25C176.526 75.2305 180.732 79.8202 180.091 85.2233C179.56 89.7031 175.501 92.8589 170.995 93.0459C167.441 93.1944 164.695 96.4689 165.431 100.189C165.99 103.003 168.647 104.918 171.514 104.918H184.61C190.532 104.918 195.3 109.876 194.985 115.867C194.691 121.487 189.647 125.699 184.022 125.699H177.188C170.68 125.699 165.805 132.676 169.629 139.557ZM12.4224 101.949C16.5222 101.949 19.8442 98.6272 19.8442 94.5273C19.8442 90.4275 16.5222 87.1055 12.4224 87.1055C8.32255 87.1055 5.00053 90.4275 5.00053 94.5273C5.00053 98.6272 8.32255 101.949 12.4224 101.949Z" fill="#E6F7FF"/>
<path d="M145.557 124.425L174.343 102.899C180.643 97.9268 189.736 98.7818 195 104.841L138.786 159.885C130.92 165.653 121.404 168.738 111.648 168.679L64.4569 165.228C60.1127 164.913 55.8169 166.287 52.4627 169.065L44.1274 175.835L36.1399 130.171L36.512 130.105C47.9247 117.912 65.1959 113.121 81.2574 117.694L84.2136 118.537C88.8313 119.852 93.6878 120.105 98.418 119.276L124.812 114.66C133.096 113.209 141.396 117.117 145.557 124.425V124.425Z" fill="#F7CAA5"/>
<path d="M104.479 141.985C102.639 141.985 101.106 140.576 100.948 138.745C100.789 136.912 102.059 135.263 103.873 134.948L143.383 128.035C143.122 127.398 142.819 126.78 142.478 126.182C139.051 120.181 132.232 116.97 125.423 118.151L99.0289 122.768C93.7708 123.682 88.3761 123.4 83.2409 121.946L80.2865 121.103C65.5023 116.856 49.5845 121.271 39.0995 132.528C37.7616 133.956 35.5168 134.031 34.0889 132.693C32.6593 131.355 32.5849 129.11 33.9228 127.68C46.2216 114.48 64.8879 109.303 82.2284 114.284L85.1845 115.125C89.2882 116.29 93.603 116.515 97.807 115.783L124.201 111.165C136.967 108.928 149.128 117.469 151.357 130.237C151.694 132.165 150.405 134.001 148.477 134.339L105.095 141.931C104.891 141.966 104.685 141.985 104.479 141.985V141.985Z" fill="#F4C39A"/>
<circle cx="109" cy="58" r="45" fill="url(#paint0_radial)"/>
<path d="M126.212 64.8536H106.385C104.427 64.8536 102.84 63.2665 102.84 61.309V35.2784C102.84 33.3209 104.427 31.7338 106.385 31.7338C108.342 31.7338 109.929 33.3209 109.929 35.2784V57.7644H126.212C128.17 57.7644 129.757 59.3516 129.757 61.309C129.757 63.2665 128.17 64.8536 126.212 64.8536Z" fill="#F1FCFF"/>
<path d="M44.1274 175.835L44.3617 177.177C44.7418 179.352 43.2865 181.424 41.1108 181.805L20.0484 185.491C17.8722 185.871 15.7994 184.416 15.4188 182.24L5.68915 126.615C5.30854 124.439 6.76391 122.366 8.93989 121.986L30.0018 118.3C32.1778 117.919 34.2505 119.375 34.6313 121.551L36.1399 130.171L44.1274 175.835Z" fill="url(#paint1_linear)"/>
<defs>
<radialGradient id="paint0_radial" cx="0" cy="0" r="1" gradientUnits="userSpaceOnUse" gradientTransform="translate(112.384 65.128) rotate(-59.1395) scale(131.654 124.756)">
<stop stop-color="#40A9FF"/>
<stop offset="1" stop-color="#096DD9"/>
</radialGradient>
<linearGradient id="paint1_linear" x1="10.221" y1="117.611" x2="56.2395" y2="181.932" gradientUnits="userSpaceOnUse">
<stop stop-color="#40A9FF"/>
<stop offset="1" stop-color="#096DD9"/>
</linearGradient>
</defs>
</svg>
