<svg width="200" height="200" viewBox="0 0 200 200" fill="none" xmlns="http://www.w3.org/2000/svg">
<path d="M169.629 140.557C171.114 143.223 174.094 144.526 177.146 144.512C182.341 144.488 186.507 148.914 186.058 154.196C185.663 158.874 181.445 162.324 176.748 162.324H147.5V165.293H82.1879H58.4379H25.7817C20.7052 165.293 16.6202 161.045 16.8874 155.909C17.1397 151.09 21.4622 147.48 26.2864 147.48H28.7505C32.3575 147.48 35.2105 144.265 34.6078 140.545C34.1328 137.627 31.3897 135.605 28.4328 135.605H13.9068C8.83021 135.605 4.74521 131.357 5.0124 126.221C5.26474 121.403 9.58724 117.793 14.4114 117.793H33.2036C37.3034 117.793 40.6254 114.471 40.6254 110.371C40.6254 106.271 37.3034 102.949 33.2036 102.949C29.1038 102.949 25.7817 99.6272 25.7817 95.5273C25.7817 91.4275 29.1038 88.1055 33.2036 88.1055H58.4379V67.3243H36.1723C30.2497 67.3243 25.4819 62.3665 25.7966 56.3755C26.0905 50.7557 31.1344 46.5431 36.7601 46.5431H58.4379V34.6681H129.688H147.5H172.735C178.657 34.6681 183.425 39.6259 183.11 45.6168C182.816 51.2366 177.772 55.4493 172.147 55.4493H163.828C157.906 55.4493 153.138 60.4071 153.453 66.398C153.746 72.0179 158.79 76.2305 164.416 76.2305H171.25C176.526 76.2305 180.732 80.8202 180.091 86.2233C179.56 90.7031 175.501 93.8589 170.995 94.0459C167.441 94.1944 164.695 97.4689 165.431 101.189C165.99 104.003 168.647 105.918 171.514 105.918H184.61C190.532 105.918 195.3 110.876 194.985 116.867C194.691 122.487 189.647 126.699 184.022 126.699H177.188C170.68 126.699 165.805 133.676 169.629 140.557ZM12.4224 102.949C16.5222 102.949 19.8442 99.6272 19.8442 95.5273C19.8442 91.4275 16.5222 88.1055 12.4224 88.1055C8.32255 88.1055 5.00053 91.4275 5.00053 95.5273C5.00053 99.6272 8.32255 102.949 12.4224 102.949Z" fill="#E6F7FF"/>
<path d="M17.6667 68.3333H11.3334V128.5H17.6667V68.3333Z" fill="url(#paint0_linear)"/>
<path d="M119 36.6667H9C6.79086 36.6667 5 38.4575 5 40.6667V64.3333C5 66.5425 6.79086 68.3333 9 68.3333H119" fill="url(#paint1_linear)"/>
<path d="M150.667 36.6667H191C193.209 36.6667 195 38.4575 195 40.6667V64.3333C195 66.5425 193.209 68.3333 191 68.3333H150.667" fill="url(#paint2_linear)"/>
<path d="M195 182.333H100V195H195V182.333Z" fill="url(#paint3_linear)"/>
<path d="M150.667 55.6667H119V182.333H150.667V55.6667Z" fill="url(#paint4_linear)"/>
<path d="M125.333 24H157V55.6667H106.333V43C106.333 32.55 114.883 24 125.333 24Z" fill="url(#paint5_linear)"/>
<path d="M144.333 36.6667H131.667V55.6667H144.333V36.6667Z" fill="#A6A6A6"/>
<path d="M123.433 182.333H119V177.9L150.667 146.233V155.1L123.433 182.333Z" fill="#F1FCFF"/>
<path d="M119 155.1V146.233L150.667 114.567V123.433L119 155.1Z" fill="#F1FCFF"/>
<path d="M119 123.433V114.567L150.667 82.9V91.7667L119 123.433Z" fill="#F1FCFF"/>
<path d="M119 91.7667V82.9L146.233 55.6667H150.667V60.1L119 91.7667Z" fill="#F1FCFF"/>
<path d="M72.7667 68.3333H63.9L95.5667 36.6667H104.433L72.7667 68.3333Z" fill="#F1FCFF"/>
<path d="M41.0999 68.3333H32.2333L63.8999 36.6667H72.7666L41.0999 68.3333Z" fill="#F1FCFF"/>
<path d="M9.43333 68.3333H5V63.9L32.2333 36.6667H41.1L9.43333 68.3333Z" fill="#F1FCFF"/>
<path d="M141.167 5H128.5V24H141.167V5Z" fill="url(#paint6_linear)"/>
<path d="M167.767 68.3333H158.9L190.567 36.6667H195V41.1L167.767 68.3333Z" fill="#F1FCFF"/>
<path d="M62 36.6667H48.3833L107.917 5.31667C108.55 5 108.867 5 109.5 5H153.833C154.467 5 155.417 5.31667 155.733 5.63333L193.1 36.6667H183.283L152.883 11.3333H110.133L62 36.6667Z" fill="url(#paint7_linear)"/>
<path d="M14.5 144.333C19.7467 144.333 24 140.08 24 134.833C24 129.587 19.7467 125.333 14.5 125.333C9.25329 125.333 5 129.587 5 134.833C5 140.08 9.25329 144.333 14.5 144.333Z" fill="url(#paint8_linear)"/>
<path d="M150.667 84.1667H119V90.5H150.667V84.1667Z" fill="#F1FCFF"/>
<path d="M150.667 115.833H119V122.167H150.667V115.833Z" fill="#F1FCFF"/>
<path d="M150.667 147.5H119V153.833H150.667V147.5Z" fill="#F1FCFF"/>
<path d="M71.5 36.6667H65.1666V68.3333H71.5V36.6667Z" fill="#F1FCFF"/>
<path d="M166.5 36.6667H160.167V68.3333H166.5V36.6667Z" fill="#F1FCFF"/>
<path d="M103.167 36.6667H96.8334V68.3333H103.167V36.6667Z" fill="#F1FCFF"/>
<path d="M39.8333 36.6667H33.5V68.3333H39.8333V36.6667Z" fill="#F1FCFF"/>
<circle cx="64.5" cy="49.5" r="44.5" fill="url(#paint9_radial)"/>
<path d="M76.8655 46.8503H73.2356C73.0615 46.2787 72.8314 45.7256 72.5486 45.1992L75.1177 42.6301C75.2835 42.4642 75.3767 42.2392 75.3767 42.0047C75.3767 41.7701 75.2835 41.5451 75.1177 41.3792L72.6208 38.8823C72.4549 38.7164 72.2299 38.6232 71.9954 38.6232C71.7608 38.6232 71.5358 38.7164 71.37 38.8823L68.8009 41.4514C68.2746 41.1686 67.7216 40.9385 67.15 40.7644V37.1344C67.15 37.0183 67.1271 36.9032 67.0827 36.7959C67.0382 36.6886 66.9731 36.5911 66.891 36.5089C66.8088 36.4268 66.7113 36.3617 66.604 36.3172C66.4967 36.2727 66.3816 36.2499 66.2655 36.2498H62.7345C62.6183 36.2499 62.5033 36.2727 62.396 36.3172C62.2887 36.3617 62.1911 36.4268 62.109 36.509C62.0269 36.5911 61.9617 36.6886 61.9173 36.7959C61.8728 36.9032 61.85 37.0183 61.85 37.1344V40.7644C61.2778 40.9377 60.7241 41.1672 60.197 41.4494L57.63 38.8823C57.4642 38.7164 57.2392 38.6233 57.0046 38.6233C56.7701 38.6233 56.5451 38.7164 56.3792 38.8823L53.8823 41.3793C53.7165 41.5452 53.6233 41.7701 53.6233 42.0047C53.6233 42.2393 53.7165 42.4642 53.8823 42.6301L56.4493 45.1972C56.1671 45.7243 55.9377 46.278 55.7644 46.8503H52.1345C52.0183 46.8503 51.9033 46.8732 51.796 46.9177C51.6887 46.9621 51.5912 47.0273 51.509 47.1094C51.4269 47.1916 51.3617 47.2891 51.3173 47.3964C51.2729 47.5037 51.25 47.6187 51.25 47.7349V51.266C51.25 51.5005 51.3432 51.7255 51.509 51.8914C51.6749 52.0573 51.8999 52.1505 52.1345 52.1505H55.7644C55.9385 52.7221 56.1686 53.2752 56.4514 53.8015L53.8823 56.3707C53.7165 56.5366 53.6233 56.7615 53.6233 56.9961C53.6233 57.2307 53.7165 57.4556 53.8823 57.6215L56.3792 60.1185C56.4614 60.2006 56.5589 60.2658 56.6662 60.3102C56.7735 60.3547 56.8885 60.3776 57.0046 60.3776C57.1208 60.3776 57.2358 60.3547 57.3431 60.3102C57.4504 60.2658 57.5479 60.2006 57.63 60.1185L60.1991 57.5494C60.7254 57.8322 61.2784 58.0623 61.85 58.2364V61.8664C61.85 62.101 61.9432 62.326 62.109 62.4919C62.2749 62.6577 62.4999 62.751 62.7345 62.751H66.2655C66.3816 62.751 66.4967 62.7281 66.604 62.6836C66.7113 62.6392 66.8088 62.574 66.891 62.4919C66.9731 62.4097 67.0382 62.3122 67.0827 62.2049C67.1271 62.0976 67.15 61.9826 67.15 61.8664V58.2364C67.7222 58.0631 68.2759 57.8337 68.803 57.5514L71.37 60.1185C71.4521 60.2006 71.5496 60.2658 71.6569 60.3102C71.7642 60.3547 71.8792 60.3776 71.9954 60.3776C72.1115 60.3776 72.2265 60.3547 72.3338 60.3102C72.4411 60.2658 72.5386 60.2006 72.6208 60.1185L75.1177 57.6215C75.2835 57.4556 75.3767 57.2307 75.3767 56.9961C75.3767 56.7615 75.2835 56.5366 75.1177 56.3707L72.5507 53.8036C72.8329 53.2765 73.0623 52.7228 73.2356 52.1505H76.8655C76.9817 52.1505 77.0967 52.1276 77.204 52.0832C77.3113 52.0387 77.4088 51.9736 77.491 51.8914C77.5731 51.8093 77.6383 51.7118 77.6827 51.6045C77.7271 51.4971 77.75 51.3821 77.75 51.266V47.7349C77.75 47.6187 77.7271 47.5037 77.6827 47.3964C77.6383 47.2891 77.5731 47.1915 77.491 47.1094C77.4088 47.0273 77.3113 46.9621 77.204 46.9176C77.0967 46.8732 76.9817 46.8503 76.8655 46.8503ZM64.5 53.6228C63.6845 53.6229 62.8874 53.3813 62.2093 52.9284C61.5312 52.4755 61.0027 51.8317 60.6905 51.0784C60.3784 50.3252 60.2966 49.4963 60.4557 48.6966C60.6147 47.8969 61.0073 47.1623 61.5838 46.5857C62.1604 46.0091 62.895 45.6164 63.6948 45.4573C64.4946 45.2982 65.3236 45.3798 66.077 45.6918C66.8304 46.0038 67.4743 46.5321 67.9273 47.2101C68.3804 47.888 68.6222 48.6851 68.6222 49.5004C68.6223 50.5937 68.188 51.6422 67.415 52.4153C66.6419 53.1884 65.5933 53.6227 64.5 53.6228H64.5ZM69.8706 70.626L71.0249 75.1935C65.8509 76.4994 60.4033 76.2143 55.394 74.3753C50.3847 72.5363 46.0468 69.2291 42.9471 64.8858C39.8475 60.5426 38.1305 55.3654 38.0203 50.0308C37.9102 44.6963 39.4122 39.4527 42.3299 34.9852L38 30.6551H49.7778V42.4334L45.7488 38.4043C43.5627 42.1108 42.5222 46.3811 42.7581 50.6776C42.9941 54.9742 44.4961 59.1049 47.0749 62.5497C49.6538 65.9945 53.1943 68.5994 57.2507 70.0366C61.307 71.4737 65.698 71.6788 69.8707 70.6259L69.8706 70.626ZM86.664 64.0095L91 68.3457H79.2222V56.5674L83.2441 60.5894C85.4312 56.8841 86.4727 52.6145 86.2376 48.3184C86.0024 44.0224 84.5011 39.8919 81.9226 36.4474C79.3442 33.0029 75.804 30.3984 71.7479 28.9619C67.6919 27.5253 63.3014 27.3211 59.1294 28.3749L57.9752 23.8074C63.1485 22.5007 68.5957 22.7852 73.6047 24.6237C78.6137 26.4622 82.9513 29.7691 86.0505 34.1121C89.1497 38.455 90.8663 43.632 90.9757 48.966C91.0852 54.3001 89.5824 59.5431 86.664 64.0095L86.664 64.0095Z" fill="#F1FCFF"/>
<defs>
<linearGradient id="paint0_linear" x1="14.5" y1="145.226" x2="14.5" y2="85.0296" gradientUnits="userSpaceOnUse">
<stop stop-color="#A4A4A4"/>
<stop offset="0.619" stop-color="#808080"/>
<stop offset="1" stop-color="#6F6F6F"/>
</linearGradient>
<linearGradient id="paint1_linear" x1="19.8613" y1="36.6667" x2="25.0049" y2="80.9793" gradientUnits="userSpaceOnUse">
<stop stop-color="#40A9FF"/>
<stop offset="1" stop-color="#096DD9"/>
</linearGradient>
<linearGradient id="paint2_linear" x1="156.446" y1="36.6667" x2="168.754" y2="77.9025" gradientUnits="userSpaceOnUse">
<stop stop-color="#40A9FF"/>
<stop offset="1" stop-color="#096DD9"/>
</linearGradient>
<linearGradient id="paint3_linear" x1="147.5" y1="198.521" x2="147.5" y2="185.848" gradientUnits="userSpaceOnUse">
<stop stop-color="#A4A4A4"/>
<stop offset="0.619" stop-color="#808080"/>
<stop offset="1" stop-color="#6F6F6F"/>
</linearGradient>
<linearGradient id="paint4_linear" x1="123.128" y1="55.6667" x2="202.272" y2="103.015" gradientUnits="userSpaceOnUse">
<stop stop-color="#096DD9"/>
<stop offset="1" stop-color="#40A9FF"/>
</linearGradient>
<linearGradient id="paint5_linear" x1="131.667" y1="64.47" x2="131.667" y2="32.7875" gradientUnits="userSpaceOnUse">
<stop stop-color="#A4A4A4"/>
<stop offset="0.619" stop-color="#808080"/>
<stop offset="1" stop-color="#6F6F6F"/>
</linearGradient>
<linearGradient id="paint6_linear" x1="134.833" y1="29.282" x2="134.833" y2="10.2725" gradientUnits="userSpaceOnUse">
<stop stop-color="#A4A4A4"/>
<stop offset="0.619" stop-color="#808080"/>
<stop offset="1" stop-color="#6F6F6F"/>
</linearGradient>
<linearGradient id="paint7_linear" x1="120.742" y1="45.47" x2="120.742" y2="13.7875" gradientUnits="userSpaceOnUse">
<stop stop-color="#A4A4A4"/>
<stop offset="0.619" stop-color="#808080"/>
<stop offset="1" stop-color="#6F6F6F"/>
</linearGradient>
<linearGradient id="paint8_linear" x1="14.5" y1="149.615" x2="14.5" y2="130.606" gradientUnits="userSpaceOnUse">
<stop stop-color="#A4A4A4"/>
<stop offset="0.619" stop-color="#808080"/>
<stop offset="1" stop-color="#6F6F6F"/>
</linearGradient>
<radialGradient id="paint9_radial" cx="0" cy="0" r="1" gradientUnits="userSpaceOnUse" gradientTransform="translate(67.8464 56.5488) rotate(-59.1395) scale(130.191 123.37)">
<stop stop-color="#40A9FF"/>
<stop offset="1" stop-color="#096DD9"/>
</radialGradient>
</defs>
</svg>
